<svg xmlns="http://www.w3.org/2000/svg" version="1.1" xmlns:xlink="http://www.w3.org/1999/xlink" xmlns:svgjs="http://svgjs.dev/svgjs" width="2000" height="363" viewBox="0 0 2000 363"><g transform="matrix(1,0,0,1,-1.2121212121212466,-0.8269025294985397)"><svg viewBox="0 0 396 72" data-background-color="#000000" preserveAspectRatio="xMidYMid meet" height="363" width="2000" xmlns="http://www.w3.org/2000/svg" xmlns:xlink="http://www.w3.org/1999/xlink"><g id="tight-bounds" transform="matrix(1,0,0,1,0.2400000000000091,0.16401372485921684)"><svg viewBox="0 0 395.52 71.67197255028157" height="71.67197255028157" width="395.52"><g><svg viewBox="0 0 480.38336178351403 87.050018" height="71.67197255028157" width="395.52"><g><svg viewBox="0 0 480.38336178351403 87.050018" height="87.050018" width="480.38336178351403"><g id="textblocktransform"><svg viewBox="0 0 480.38336178351403 87.050018" height="87.050018" width="480.38336178351403" id="textblock"><g><svg viewBox="0 0 480.38336178351403 87.050018" height="87.050018" width="480.38336178351403"><g><svg><g></g><g></g></svg></g><g><svg><g><svg></svg></g><g></g></svg></g><g id="text-0"><svg viewBox="0 0 480.38336178351403 87.050018" height="87.050018" width="480.38336178351403"><g transform="matrix(1,0,0,1,0,11.583496836949376)"><svg width="395.52" viewBox="2.55 -36.5 228.13 36.85" height="63.88302432610124" data-palette-color="#4563f9"><g class="wordmark-text-0" data-fill-palette-color="primary"><path d="M13.35 0.35L13.35 0.35Q8.8 0.35 5.9-1.35 3-3.05 3-6.9L3-6.9Q3-7.3 3.03-7.63 3.05-7.95 3.1-8.15L3.1-8.15Q3.3-9.55 3.95-11.6 4.6-13.65 5.45-15.98 6.3-18.3 7.1-20.55 7.9-22.8 8.45-24.68 9-26.55 9-27.7L9-27.7Q9-29 8.15-29L8.15-29Q7.2-29 5.8-27.58 4.4-26.15 2.85-23.6L2.85-23.6 2.55-23.75Q2.55-27.05 3.85-29.45 5.15-31.85 7.3-33.43 9.45-35 12.1-35.75 14.75-36.5 17.45-36.5L17.45-36.5Q20.8-36.5 23.75-35.43 26.7-34.35 28.58-32.35 30.45-30.35 30.45-27.45L30.45-27.45Q30.45-22.25 24.1-19.35L24.1-19.35Q27.85-18.5 29.6-16.5 31.35-14.5 31.35-12.05L31.35-12.05Q31.35-9.9 30.08-7.73 28.8-5.55 26.45-3.73 24.1-1.9 20.78-0.78 17.45 0.35 13.35 0.35ZM15.3-20.85L15.3-20.85Q17.6-20.8 19.33-21.58 21.05-22.35 22.03-23.58 23-24.8 23-26.1L23-26.1Q23-27.8 21.2-29.13 19.4-30.45 15.55-30.45L15.55-30.45Q15.75-29.5 15.83-28.55 15.9-27.6 15.9-26.7L15.9-26.7Q15.9-25.25 15.73-23.8 15.55-22.35 15.3-20.85ZM14.75-5.75L14.75-5.75Q16.9-5.75 18.55-6.63 20.2-7.5 21.15-8.88 22.1-10.25 22.1-11.7L22.1-11.7Q22.1-13.7 20.2-15.4 18.3-17.1 14.25-17.5L14.25-17.5Q14.05-15.95 13.43-14.2 12.8-12.45 12.25-10.85 11.7-9.25 11.7-8.05L11.7-8.05Q11.7-7 12.35-6.38 13-5.75 14.75-5.75ZM40.1 0.2L40.1 0.2Q38.75 0.2 37.47-0.48 36.2-1.15 35.4-2.65 34.6-4.15 34.6-6.5L34.6-6.5Q34.6-8.6 35.17-11.43 35.75-14.25 36.47-17.3 37.2-20.35 37.75-23.25 38.3-26.15 38.25-28.4L38.25-28.4Q38.25-30.55 37.75-31.45L37.75-31.45 37.7-31.6Q38.25-33.2 39.65-34.1 41.05-35 42.6-35L42.6-35Q44.35-35 45.72-33.68 47.1-32.35 47.1-29.25L47.1-29.25Q47.1-27.6 46.7-25.33 46.3-23.05 45.75-20.48 45.2-17.9 44.62-15.4 44.05-12.9 43.65-10.8 43.25-8.7 43.25-7.35L43.25-7.35Q43.25-5.95 43.65-5.43 44.05-4.9 44.55-4.9L44.55-4.9Q45.1-4.9 45.6-5.33 46.1-5.75 46.25-6.1L46.25-6.1 46.65-6Q46.6-4.2 45.62-2.8 44.65-1.4 43.17-0.6 41.7 0.2 40.1 0.2ZM56.35 0.2L56.35 0.2Q54.1 0.2 52.57-1.65 51.05-3.5 51.05-6.6L51.05-6.6Q51.05-8.3 51.45-10.25 51.85-12.2 52.25-13.95L52.25-13.95Q52.6-15.25 52.82-16.38 53.05-17.5 53.05-18.2L53.05-18.2Q53.05-19.1 52.67-19.5 52.3-19.9 51.8-19.9L51.8-19.9Q51.3-19.9 50.8-19.58 50.3-19.25 50-18.6L50-18.6 49.6-18.75Q49.6-20.8 50.6-22.25 51.6-23.7 53.15-24.45 54.7-25.2 56.3-25.2L56.3-25.2Q57.6-25.2 58.8-24.68 60-24.15 60.77-23.05 61.55-21.95 61.55-20.3L61.55-20.3Q61.55-19.3 61.27-17.9 61-16.5 60.65-15L60.65-15Q60.3-13.45 59.97-11.88 59.65-10.3 59.65-9.1L59.65-9.1Q59.65-8 60-7.3 60.35-6.6 61.05-6.6L61.05-6.6Q62.35-6.6 63.97-9 65.6-11.4 66.6-15.45L66.6-15.45Q66.8-16.25 66.95-17.15 67.1-18.05 67.1-19L67.1-19Q67.1-19.75 67-20.53 66.9-21.3 66.7-22.1L66.7-22.1 66.7-22.45Q67.5-23.8 68.77-24.5 70.05-25.2 71.35-25.2L71.35-25.2Q73.1-25.2 74.5-24 75.9-22.8 75.9-20.5L75.9-20.5Q75.9-19.15 75.4-17.38 74.9-15.6 74.3-13.7L74.3-13.7Q73.7-11.85 73.2-10.05 72.7-8.25 72.7-6.85L72.7-6.85Q72.7-4.8 74.15-4.8L74.15-4.8Q74.55-4.8 75.12-5.03 75.7-5.25 76.2-5.95L76.2-5.95 76.55-5.85Q76.55-4.05 75.57-2.68 74.6-1.3 73.1-0.55 71.6 0.2 70 0.2L70 0.2Q67.95 0.2 66.32-1.3 64.7-2.8 64.7-6.2L64.7-6.2 64.7-6.3Q62.65-2.8 60.45-1.3 58.25 0.2 56.35 0.2ZM84.99 0.15L84.99 0.15Q83.14 0.15 81.64-1.33 80.14-2.8 80.14-5.45L80.14-5.45Q80.14-6.75 80.49-8.4 80.84-10.05 81.27-11.75 81.69-13.45 82.04-14.95 82.39-16.45 82.39-17.4L82.39-17.4Q82.39-18.4 81.99-18.98 81.59-19.55 80.94-19.55L80.94-19.55Q80.09-19.55 79.09-18.55L79.09-18.55 78.79-18.75Q78.74-19.55 79.14-20.65 79.54-21.75 80.37-22.78 81.19-23.8 82.49-24.5 83.79-25.2 85.59-25.2L85.59-25.2Q88.24-25.2 89.52-23.68 90.79-22.15 90.79-19.95L90.79-19.95Q90.79-19.15 90.64-18.4L90.64-18.4Q91.69-19.95 93.24-21.53 94.79-23.1 96.67-24.15 98.54-25.2 100.54-25.2L100.54-25.2Q102.89-25.2 103.74-23.7 104.59-22.2 104.59-19.95L104.59-19.95Q104.59-17.85 104.14-15.45 103.69-13.05 103.24-10.83 102.79-8.6 102.79-7.1L102.79-7.1Q102.79-5.1 103.94-5.1L103.94-5.1Q104.54-5.1 104.99-5.48 105.44-5.85 105.59-6.2L105.59-6.2 105.94-6.05Q105.94-4.2 104.92-2.8 103.89-1.4 102.34-0.63 100.79 0.15 99.19 0.15L99.19 0.15Q97.24 0.15 95.74-1.2 94.24-2.55 94.24-5.6L94.24-5.6Q94.24-7.4 94.72-9.5 95.19-11.6 95.64-13.55 96.09-15.5 96.09-16.75L96.09-16.75Q96.09-17.5 95.82-17.93 95.54-18.35 94.84-18.35L94.84-18.35Q93.69-18.35 92.32-17.3 90.94-16.25 89.97-14.5 88.99-12.75 88.99-10.65L88.99-10.65Q88.99-9.3 89.32-8.05 89.64-6.8 89.64-5.35L89.64-5.35Q89.64-2.65 88.24-1.25 86.84 0.15 84.99 0.15ZM115.69 0.2L115.69 0.2Q114.09 0.2 112.67-0.53 111.24-1.25 110.37-2.8 109.49-4.35 109.49-6.75L109.49-6.75Q109.49-8.05 109.74-10.15 109.99-12.25 110.42-14.75 110.84-17.25 111.29-19.75L111.29-19.75Q110.29-19.7 109.37-19.55 108.44-19.4 107.54-19.2L107.54-19.2 107.44-19.55Q108.44-20.75 109.54-21.6 110.64-22.45 111.84-23L111.84-23Q112.49-26.3 112.94-28.73 113.39-31.15 113.39-31.6L113.39-31.6Q113.39-32.45 114.72-33 116.04-33.55 117.69-33.55L117.69-33.55Q119.14-33.55 120.42-33 121.69-32.45 122.14-31.15L122.14-31.15Q121.84-30.85 121.29-28.93 120.74-27 120.14-24.25L120.14-24.25Q121.09-24.2 122.09-24.15 123.09-24.1 124.14-24L124.14-24Q124.24-23.7 124.29-23.35 124.34-23 124.34-22.6L124.34-22.6Q124.34-21.85 124.12-20.98 123.89-20.1 123.59-19.4L123.59-19.4Q122.39-19.5 121.34-19.63 120.29-19.75 119.29-19.8L119.29-19.8Q118.89-17.65 118.57-15.5 118.24-13.35 118.07-11.6 117.89-9.85 117.89-8.85L117.89-8.85Q117.89-6.75 118.67-6.05 119.44-5.35 120.54-5.35L120.54-5.35Q121.54-5.35 122.34-5.75 123.14-6.15 123.49-6.7L123.49-6.7 123.99-6.55Q123.69-4.5 122.39-2.98 121.09-1.45 119.29-0.63 117.49 0.2 115.69 0.2ZM149.89 0.35L149.89 0.35Q148.14 0.35 146.86-0.53 145.59-1.4 144.66-2.8 143.74-4.2 143.06-5.88 142.39-7.55 141.79-9.1L141.79-9.1Q140.89-11.6 140.14-13.48 139.39-15.35 138.49-16.65L138.49-16.65Q137.54-12.85 136.96-9.35 136.39-5.85 136.24-1.55L136.24-1.55Q135.34-0.7 134.21-0.25 133.09 0.2 131.94 0.2L131.94 0.2Q130.19 0.2 128.84-1.03 127.49-2.25 127.49-5.15L127.49-5.15Q127.49-7.15 128.09-9.65 128.69-12.15 129.56-14.8 130.44-17.45 131.34-19.95 132.24-22.45 132.84-24.48 133.44-26.5 133.44-27.7L133.44-27.7Q133.44-28.95 132.59-28.95L132.59-28.95Q131.64-28.95 130.29-27.53 128.94-26.1 127.54-23.55L127.54-23.55 127.24-23.65Q127.24-26.65 128.54-29 129.84-31.35 132.06-32.98 134.29-34.6 137.21-35.45 140.14-36.3 143.34-36.3L143.34-36.3Q147.59-36.3 150.24-34.98 152.89-33.65 154.16-31.58 155.44-29.5 155.44-27.15L155.44-27.15Q155.44-24.75 154.21-22.45 152.99-20.15 150.76-18.63 148.54-17.1 145.49-16.85L145.49-16.85Q146.54-16.05 147.29-14.83 148.04-13.6 148.84-12.05L148.84-12.05Q149.54-10.65 150.49-9.38 151.44-8.1 153.09-8.1L153.09-8.1Q153.94-8.1 154.49-8.53 155.04-8.95 155.44-9.95L155.44-9.95 155.74-9.8Q155.99-9.05 156.06-8.35 156.14-7.65 156.14-7.05L156.14-7.05Q156.14-3.9 154.39-1.78 152.64 0.35 149.89 0.35ZM140.99-21.25L140.99-21.25Q142.79-21.25 144.11-22.08 145.44-22.9 146.16-24.13 146.89-25.35 146.89-26.6L146.89-26.6Q146.89-28.15 145.71-29.33 144.54-30.5 141.89-30.5L141.89-30.5Q141.49-30.5 141.06-30.48 140.64-30.45 140.24-30.4L140.24-30.4Q140.29-30.05 140.29-29.73 140.29-29.4 140.29-29.4L140.29-29.4Q140.29-27.1 140.11-24.95 139.94-22.8 139.64-21.35L139.64-21.35Q139.99-21.3 140.31-21.28 140.64-21.25 140.99-21.25ZM170.19 0.35L170.19 0.35Q166.54 0.35 164.14-1.13 161.74-2.6 160.54-5.03 159.34-7.45 159.34-10.25L159.34-10.25Q159.34-12.9 160.36-15.58 161.39-18.25 163.36-20.45 165.34-22.65 168.16-24 170.99-25.35 174.54-25.35L174.54-25.35Q178.94-25.35 180.96-23.38 182.99-21.4 182.99-18.6L182.99-18.6Q182.99-16.2 181.71-14.18 180.44-12.15 178.34-10.93 176.24-9.7 173.74-9.7L173.74-9.7Q172.44-9.7 171.09-10.1 169.74-10.5 168.44-11.35L168.44-11.35Q168.69-8.25 170.24-6.85 171.79-5.45 173.94-5.45L173.94-5.45Q175.44-5.45 176.94-6.03 178.44-6.6 179.71-7.53 180.99-8.45 181.69-9.5L181.69-9.5 182.04-9.25Q182.04-6.65 180.96-4.83 179.89-3 178.14-1.85 176.39-0.7 174.31-0.18 172.24 0.35 170.19 0.35ZM171.34-13.15L171.34-13.15Q172.94-13.15 173.94-14.08 174.94-15 175.44-16.25 175.94-17.5 175.94-18.45L175.94-18.45Q175.94-19.6 175.29-20.38 174.64-21.15 173.49-21.15L173.49-21.15Q172.59-21.15 171.51-20.5 170.44-19.85 169.59-18.28 168.74-16.7 168.49-13.9L168.49-13.9Q170.09-13.15 171.34-13.15ZM191.33 0.15L191.33 0.15Q189.48 0.15 187.98-1.33 186.48-2.8 186.48-5.45L186.48-5.45Q186.48-6.75 186.83-8.4 187.18-10.05 187.61-11.75 188.03-13.45 188.38-14.95 188.73-16.45 188.73-17.4L188.73-17.4Q188.73-18.4 188.33-18.98 187.93-19.55 187.28-19.55L187.28-19.55Q186.43-19.55 185.43-18.55L185.43-18.55 185.13-18.75Q185.08-19.55 185.48-20.65 185.88-21.75 186.71-22.78 187.53-23.8 188.83-24.5 190.13-25.2 191.93-25.2L191.93-25.2Q194.58-25.2 195.86-23.68 197.13-22.15 197.13-19.95L197.13-19.95Q197.13-19.15 196.98-18.4L196.98-18.4Q198.03-19.95 199.58-21.53 201.13-23.1 203.01-24.15 204.88-25.2 206.88-25.2L206.88-25.2Q209.23-25.2 210.08-23.7 210.93-22.2 210.93-19.95L210.93-19.95Q210.93-17.85 210.48-15.45 210.03-13.05 209.58-10.83 209.13-8.6 209.13-7.1L209.13-7.1Q209.13-5.1 210.28-5.1L210.28-5.1Q210.88-5.1 211.33-5.48 211.78-5.85 211.93-6.2L211.93-6.2 212.28-6.05Q212.28-4.2 211.26-2.8 210.23-1.4 208.68-0.63 207.13 0.15 205.53 0.15L205.53 0.15Q203.58 0.15 202.08-1.2 200.58-2.55 200.58-5.6L200.58-5.6Q200.58-7.4 201.06-9.5 201.53-11.6 201.98-13.55 202.43-15.5 202.43-16.75L202.43-16.75Q202.43-17.5 202.16-17.93 201.88-18.35 201.18-18.35L201.18-18.35Q200.03-18.35 198.66-17.3 197.28-16.25 196.31-14.5 195.33-12.75 195.33-10.65L195.33-10.65Q195.33-9.3 195.66-8.05 195.98-6.8 195.98-5.35L195.98-5.35Q195.98-2.65 194.58-1.25 193.18 0.15 191.33 0.15ZM222.03 0.2L222.03 0.2Q220.43 0.2 219.01-0.53 217.58-1.25 216.71-2.8 215.83-4.35 215.83-6.75L215.83-6.75Q215.83-8.05 216.08-10.15 216.33-12.25 216.76-14.75 217.18-17.25 217.63-19.75L217.63-19.75Q216.63-19.7 215.71-19.55 214.78-19.4 213.88-19.2L213.88-19.2 213.78-19.55Q214.78-20.75 215.88-21.6 216.98-22.45 218.18-23L218.18-23Q218.83-26.3 219.28-28.73 219.73-31.15 219.73-31.6L219.73-31.6Q219.73-32.45 221.06-33 222.38-33.55 224.03-33.55L224.03-33.55Q225.48-33.55 226.76-33 228.03-32.45 228.48-31.15L228.48-31.15Q228.18-30.85 227.63-28.93 227.08-27 226.48-24.25L226.48-24.25Q227.43-24.2 228.43-24.15 229.43-24.1 230.48-24L230.48-24Q230.58-23.7 230.63-23.35 230.68-23 230.68-22.6L230.68-22.6Q230.68-21.85 230.46-20.98 230.23-20.1 229.93-19.4L229.93-19.4Q228.73-19.5 227.68-19.63 226.63-19.75 225.63-19.8L225.63-19.8Q225.23-17.65 224.91-15.5 224.58-13.35 224.41-11.6 224.23-9.85 224.23-8.85L224.23-8.85Q224.23-6.75 225.01-6.05 225.78-5.35 226.88-5.35L226.88-5.35Q227.88-5.35 228.68-5.75 229.48-6.15 229.83-6.7L229.83-6.7 230.33-6.55Q230.03-4.5 228.73-2.98 227.43-1.45 225.63-0.63 223.83 0.2 222.03 0.2Z" fill="#000000" data-fill-palette-color="primary"></path></g></svg></g><g><svg xmlns="http://www.w3.org/2000/svg" xmlns:xlink="http://www.w3.org/1999/xlink" version="1.1" x="409.5967" y="0" viewBox="13.412 5.004 73.17899999999999 89.99199999999999" enable-background="new 0 0 100 100" xml:space="preserve" height="87.050018" width="70.78666178351408" class="icon-dxe-0" data-fill-palette-color="accent" id="dxe-0"><g fill="#2f3ce6" data-fill-palette-color="accent"><path d="M80.612 8.182H57.369C54.216 6.211 49.629 5.004 43.597 5.004 38.607 5.004 33.953 5.923 30.143 7.435H18.933C15.884 7.435 13.412 11.525 13.412 16.572V23.854C13.412 28.903 15.884 32.993 18.933 32.993H30.733C30.837 32.993 30.938 32.976 31.04 32.968L44.902 49.772A5.98 5.98 0 0 0 52.88 50.459V55.229C48.059 55.559 44.247 59.569 44.247 64.477A9.275 9.275 0 0 0 49.963 73.04V72.784A3.563 3.563 0 0 1 53.52 69.227 3.56 3.56 0 0 1 57.077 72.784V73.04A9.27 9.27 0 0 0 62.792 64.477C62.792 59.569 58.983 55.559 54.16 55.229V50.33C55.046 51.162 56.166 51.668 57.395 51.668 60.241 51.668 62.552 48.992 62.552 45.692V26.887L70.07 32.681C72.743 34.617 76.347 34.203 78.12 31.754 79.894 29.308 79.167 25.753 76.494 23.816L69.212 18.207H80.614C83.914 18.207 86.591 15.962 86.591 13.194 86.589 10.425 83.912 8.182 80.612 8.182M52.235 39.914L43.072 28.805C43.041 28.506 43.013 28.139 42.956 27.663 42.672 25.232 44.948 23.225 47.394 23.225 49.843 23.225 52.234 25.568 52.234 28.016zM55.721 61.229C55.721 62.442 54.734 63.43 53.519 63.43S51.317 62.442 51.317 61.229A2.2 2.2 0 0 1 52.88 59.131V60.026A0.64 0.64 0 0 0 54.16 60.026V59.131A2.2 2.2 0 0 1 55.721 61.229" fill="#000000" data-fill-palette-color="accent"></path><path d="M53.519 70.078A2.706 2.706 0 0 0 50.815 72.781V92.287C50.815 93.781 52.028 94.996 53.519 94.996S56.224 93.781 56.224 92.287V72.781A2.706 2.706 0 0 0 53.519 70.078" fill="#000000" data-fill-palette-color="accent"></path></g></svg></g></svg></g></svg></g></svg></g></svg></g></svg></g><defs></defs></svg><rect width="395.52" height="71.67197255028157" fill="none" stroke="none" visibility="hidden"></rect></g></svg></g></svg>