<svg xmlns="http://www.w3.org/2000/svg" version="1.1" xmlns:xlink="http://www.w3.org/1999/xlink" xmlns:svgjs="http://svgjs.dev/svgjs" width="2000" height="1252" viewBox="0 0 2000 1252"><g transform="matrix(1,0,0,1,-1.2121212121212466,-2.01935483870966)"><svg viewBox="0 0 396 248" data-background-color="#000000" preserveAspectRatio="xMidYMid meet" height="1252" width="2000" xmlns="http://www.w3.org/2000/svg" xmlns:xlink="http://www.w3.org/1999/xlink"><g id="tight-bounds" transform="matrix(1,0,0,1,0.2400000000000091,0.4000000000000057)"><svg viewBox="0 0 395.52 247.2" height="247.2" width="395.52"><g><svg></svg></g><g><svg viewBox="0 0 395.52 247.2" height="247.2" width="395.52"><g transform="matrix(1,0,0,1,75.54432,80.89456231399848)"><svg viewBox="0 0 244.43135999999998 85.41087537200302" height="85.41087537200302" width="244.43135999999998"><g><svg viewBox="0 0 354.1153909158086 123.73741863899238" height="85.41087537200302" width="244.43135999999998"><g transform="matrix(1,0,0,1,109.68403091580856,31.206026033660603)"><svg viewBox="0 0 244.43135999999998 61.325366571671175" height="61.325366571671175" width="244.43135999999998"><g id="textblocktransform"><svg viewBox="0 0 244.43135999999998 61.325366571671175" height="61.325366571671175" width="244.43135999999998" id="textblock"><g><svg viewBox="0 0 244.43135999999998 38.395227955182975" height="38.395227955182975" width="244.43135999999998"><g transform="matrix(1,0,0,1,0,0)"><svg width="244.43135999999998" viewBox="-0.1 -36.3 279.455791015625 43.9" height="38.395227955182975" data-palette-color="#5871ee"><g transform="matrix(1,0,0,1,0,0)"><g><svg width="15.85052734375" viewBox="1.78 -36.36 74.21 36.36" height="7.766000000000001" data-palette-color="#5871ee" id="scriptelement" x="263.505263671875" y="-36.3"><path d="M12.91-30.02L1.78-30.02 1.78-36.36 31.64-36.36 31.64-30.02 20.51-30.02 20.51 0 12.91 0 12.91-30.02ZM36.57 0L36.57-36.36 46.06-36.36 56.07-11.93 56.5-11.93 66.51-36.36 75.99-36.36 75.99 0 68.53 0 68.53-23.67 68.23-23.67 58.82-0.18 53.74-0.18 44.33-23.76 44.03-23.76 44.03 0 36.57 0Z" opacity="1" transform="matrix(1,0,0,1,0,0)" fill="#000000" class="undefined-123" data-fill-palette-color="primary" id="tk-123"></path></svg></g></g><g class="wordmark-text-0" data-fill-palette-color="primary" id="text-0"><path d="M23.9 0.35L23.9 0.35Q22.1 0.35 19.83-0.3 17.55-0.95 15.08-1.73 12.6-2.5 10.15-2.85L10.15-2.85Q8.45-1.25 6.98-0.58 5.5 0.1 4.35 0.1L4.35 0.1Q2.9 0.1 1.9-0.75 0.9-1.6 0.4-2.93-0.1-4.25-0.1-5.65L-0.1-5.65Q-0.1-7.1 0.43-8.4 0.95-9.7 2.05-10.53 3.15-11.35 4.85-11.35L4.85-11.35Q5.2-11.35 5.6-11.3 6-11.25 6.45-11.15L6.45-11.15Q7.4-14.05 8.13-17.57 8.85-21.1 9.28-24.5 9.7-27.9 9.7-30.4L9.7-30.4Q9.7-31.4 9.6-31.83 9.5-32.25 9.25-32.7L9.25-32.7 9.2-32.85Q9.8-34.45 11.2-35.35 12.6-36.25 14.15-36.25L14.15-36.25Q15.85-36.25 16.95-35.02 18.05-33.8 18.05-30.95L18.05-30.95Q18.05-29.15 17.63-26.48 17.2-23.8 16.45-20.73 15.7-17.65 14.8-14.65 13.9-11.65 13-9.3L13-9.3Q15.2-8.8 17.43-8.15 19.65-7.5 21.8-7.5L21.8-7.5Q23.45-7.5 24.98-8.1 26.5-8.7 27.85-10.3L27.85-10.3Q28.85-9.65 29.33-8.45 29.8-7.25 29.8-5.9L29.8-5.9Q29.8-4.4 29.18-2.98 28.55-1.55 27.25-0.6 25.95 0.35 23.9 0.35ZM43.45 0.35L43.45 0.35Q39.8 0.35 37.4-1.13 35-2.6 33.8-5.03 32.6-7.45 32.6-10.25L32.6-10.25Q32.6-12.9 33.62-15.58 34.65-18.25 36.62-20.45 38.6-22.65 41.42-24 44.25-25.35 47.8-25.35L47.8-25.35Q52.2-25.35 54.22-23.38 56.25-21.4 56.25-18.6L56.25-18.6Q56.25-16.2 54.97-14.18 53.7-12.15 51.6-10.93 49.5-9.7 47-9.7L47-9.7Q45.7-9.7 44.35-10.1 43-10.5 41.7-11.35L41.7-11.35Q41.95-8.25 43.5-6.85 45.05-5.45 47.2-5.45L47.2-5.45Q48.7-5.45 50.2-6.03 51.7-6.6 52.97-7.53 54.25-8.45 54.95-9.5L54.95-9.5 55.3-9.25Q55.3-6.65 54.22-4.83 53.15-3 51.4-1.85 49.65-0.7 47.57-0.18 45.5 0.35 43.45 0.35ZM44.6-13.15L44.6-13.15Q46.2-13.15 47.2-14.08 48.2-15 48.7-16.25 49.2-17.5 49.2-18.45L49.2-18.45Q49.2-19.6 48.55-20.38 47.9-21.15 46.75-21.15L46.75-21.15Q45.85-21.15 44.77-20.5 43.7-19.85 42.85-18.28 42-16.7 41.75-13.9L41.75-13.9Q43.35-13.15 44.6-13.15ZM76.95 0.25L76.95 0.25Q75.2 0.25 73.9-0.9 72.59-2.05 72.59-4.65L72.59-4.65Q72.59-4.9 72.59-5.15 72.59-5.4 72.65-5.65L72.65-5.65Q71.15-2.65 69.27-1.23 67.4 0.2 65.5 0.2L65.5 0.2Q63.75 0.2 62.2-1.03 60.65-2.25 59.7-4.65 58.75-7.05 58.75-10.45L58.75-10.45Q58.75-13.95 59.72-16.7 60.7-19.45 62.3-21.35 63.9-23.25 65.8-24.23 67.7-25.2 69.5-25.2L69.5-25.2Q71.5-25.2 73.09-23.98 74.7-22.75 75.3-20.1L75.3-20.1Q75.45-20.95 75.52-21.65 75.59-22.35 75.59-22.6L75.59-22.6Q75.65-23.95 76.97-24.6 78.3-25.25 79.9-25.25L79.9-25.25Q81.3-25.25 82.55-24.7 83.8-24.15 84.25-22.85L84.25-22.85 84.34-22.55Q83.75-21.2 83.15-19.3 82.55-17.4 82.05-15.33 81.55-13.25 81.25-11.28 80.95-9.3 80.95-7.8L80.95-7.8Q80.95-6.15 81.3-5.53 81.65-4.9 82.15-4.9L82.15-4.9Q83-4.9 83.7-6.1L83.7-6.1 84.09-5.9Q84.09-4.2 83-2.8 81.9-1.4 80.25-0.58 78.59 0.25 76.95 0.25ZM68.8-6.1L68.8-6.1Q70.09-6.1 71.67-8.43 73.25-10.75 74.4-15.1L74.4-15.1Q74.5-15.55 74.59-15.98 74.7-16.4 74.75-16.8L74.75-16.8Q73.95-18.65 73.07-19.43 72.2-20.2 71.34-20.2L71.34-20.2Q70.09-20.2 69.02-18.88 67.95-17.55 67.27-15.55 66.59-13.55 66.59-11.55L66.59-11.55Q66.59-8.8 67.22-7.45 67.84-6.1 68.8-6.1ZM95.44 0.45L95.44 0.45Q92.34 0.45 90.29-0.4 88.24-1.25 87.24-2.58 86.24-3.9 86.24-5.25L86.24-5.25Q86.24-7.15 87.94-8.63 89.64-10.1 92.54-10.1L92.54-10.1Q92.54-7.55 93.19-6.03 93.84-4.5 94.87-3.85 95.89-3.2 96.84-3.2L96.84-3.2Q97.99-3.2 98.77-3.88 99.54-4.55 99.54-5.55L99.54-5.55Q99.54-6.95 98.09-8 96.64-9.05 94.34-10.35L94.34-10.35Q93.19-11.05 91.84-11.98 90.49-12.9 89.54-14.23 88.59-15.55 88.59-17.4L88.59-17.4Q88.59-19.35 89.72-20.85 90.84-22.35 92.69-23.38 94.54-24.4 96.69-24.93 98.84-25.45 100.89-25.45L100.89-25.45Q104.74-25.45 106.69-23.9 108.64-22.35 108.64-20.6L108.64-20.6Q108.64-19.1 107.14-17.9 105.64-16.7 102.54-16.7L102.54-16.7Q102.59-19.25 101.49-20.43 100.39-21.6 99.14-21.6L99.14-21.6Q98.24-21.6 97.64-21.05 97.04-20.5 97.04-19.45L97.04-19.45Q97.04-18.25 97.82-17.38 98.59-16.5 99.77-15.83 100.94-15.15 102.19-14.55L102.19-14.55Q103.89-13.75 105.39-12.85 106.89-11.95 107.84-10.8 108.79-9.65 108.79-8L108.79-8Q108.79-5.75 106.97-3.83 105.14-1.9 102.09-0.73 99.04 0.45 95.44 0.45ZM122.44 0.35L122.44 0.35Q118.79 0.35 116.39-1.13 113.99-2.6 112.79-5.03 111.59-7.45 111.59-10.25L111.59-10.25Q111.59-12.9 112.62-15.58 113.64-18.25 115.62-20.45 117.59-22.65 120.42-24 123.24-25.35 126.79-25.35L126.79-25.35Q131.19-25.35 133.22-23.38 135.24-21.4 135.24-18.6L135.24-18.6Q135.24-16.2 133.97-14.18 132.69-12.15 130.59-10.93 128.49-9.7 125.99-9.7L125.99-9.7Q124.69-9.7 123.34-10.1 121.99-10.5 120.69-11.35L120.69-11.35Q120.94-8.25 122.49-6.85 124.04-5.45 126.19-5.45L126.19-5.45Q127.69-5.45 129.19-6.03 130.69-6.6 131.97-7.53 133.24-8.45 133.94-9.5L133.94-9.5 134.29-9.25Q134.29-6.65 133.22-4.83 132.14-3 130.39-1.85 128.64-0.7 126.57-0.18 124.49 0.35 122.44 0.35ZM123.59-13.15L123.59-13.15Q125.19-13.15 126.19-14.08 127.19-15 127.69-16.25 128.19-17.5 128.19-18.45L128.19-18.45Q128.19-19.6 127.54-20.38 126.89-21.15 125.74-21.15L125.74-21.15Q124.84-21.15 123.77-20.5 122.69-19.85 121.84-18.28 120.99-16.7 120.74-13.9L120.74-13.9Q122.34-13.15 123.59-13.15ZM157.49 7.6L157.49 7.6Q157.14 7.6 156.81 7.58 156.49 7.55 156.14 7.5L156.14 7.5Q155.84 5.35 155.69 3.23 155.54 1.1 155.49-0.8L155.49-0.8Q153.09 0.3 150.54 0.3L150.54 0.3Q147.34 0.3 144.51-1.45 141.69-3.2 139.94-6.8 138.19-10.4 138.19-15.85L138.19-15.85Q138.19-21.15 139.84-25 141.49-28.85 144.14-31.35 146.79-33.85 149.89-35.05 152.99-36.25 155.89-36.25L155.89-36.25Q158.49-36.25 160.64-35.38 162.79-34.5 164.06-32.93 165.34-31.35 165.34-29.15L165.34-29.15Q165.34-27.35 164.34-25.75 163.34-24.15 161.29-23.18 159.24-22.2 156.09-22.2L156.09-22.2Q156.59-23.65 156.79-24.8 156.99-25.95 156.99-26.8L156.99-26.8Q156.99-28.7 156.19-29.38 155.39-30.05 154.34-30.05L154.34-30.05Q152.29-30.05 150.64-28.2 148.99-26.35 148.04-23.38 147.09-20.4 147.09-17L147.09-17Q147.09-12.15 148.99-9.4 150.89-6.65 153.74-6.65L153.74-6.65Q154.84-6.65 156.04-7.1L156.04-7.1 156.04-7.15Q156.04-10.9 156.71-13.13 157.39-15.35 158.46-16.3 159.54-17.25 160.69-17.25L160.69-17.25Q161.94-17.25 163.06-16.4 164.19-15.55 164.94-14.23 165.69-12.9 165.69-11.35L165.69-11.35Q165.69-9.95 164.91-8.53 164.14-7.1 162.29-5.95L162.29-5.95Q162.19-5.55 162.14-5.15 162.09-4.75 162.09-4.35L162.09-4.35Q162.09-3 162.66-1.3 163.24 0.4 164.49 3.45L164.49 3.45Q164.19 4.6 163.11 5.55 162.04 6.5 160.56 7.05 159.09 7.6 157.49 7.6ZM179.54 0.35L179.54 0.35Q175.89 0.35 173.49-1.13 171.09-2.6 169.89-5.03 168.69-7.45 168.69-10.25L168.69-10.25Q168.69-12.9 169.71-15.58 170.74-18.25 172.71-20.45 174.69-22.65 177.51-24 180.34-25.35 183.89-25.35L183.89-25.35Q188.29-25.35 190.31-23.38 192.34-21.4 192.34-18.6L192.34-18.6Q192.34-16.2 191.06-14.18 189.79-12.15 187.69-10.93 185.59-9.7 183.09-9.7L183.09-9.7Q181.79-9.7 180.44-10.1 179.09-10.5 177.79-11.35L177.79-11.35Q178.04-8.25 179.59-6.85 181.14-5.45 183.29-5.45L183.29-5.45Q184.79-5.45 186.29-6.03 187.79-6.6 189.06-7.53 190.34-8.45 191.04-9.5L191.04-9.5 191.39-9.25Q191.39-6.65 190.31-4.83 189.24-3 187.49-1.85 185.74-0.7 183.66-0.18 181.59 0.35 179.54 0.35ZM180.69-13.15L180.69-13.15Q182.29-13.15 183.29-14.08 184.29-15 184.79-16.25 185.29-17.5 185.29-18.45L185.29-18.45Q185.29-19.6 184.64-20.38 183.99-21.15 182.84-21.15L182.84-21.15Q181.94-21.15 180.86-20.5 179.79-19.85 178.94-18.28 178.09-16.7 177.84-13.9L177.84-13.9Q179.44-13.15 180.69-13.15ZM200.68 0.15L200.68 0.15Q198.83 0.15 197.33-1.33 195.83-2.8 195.83-5.45L195.83-5.45Q195.83-6.75 196.18-8.4 196.53-10.05 196.96-11.75 197.38-13.45 197.73-14.95 198.08-16.45 198.08-17.4L198.08-17.4Q198.08-18.4 197.68-18.98 197.28-19.55 196.63-19.55L196.63-19.55Q195.78-19.55 194.78-18.55L194.78-18.55 194.48-18.75Q194.43-19.55 194.83-20.65 195.23-21.75 196.06-22.78 196.88-23.8 198.18-24.5 199.48-25.2 201.28-25.2L201.28-25.2Q203.93-25.2 205.21-23.68 206.48-22.15 206.48-19.95L206.48-19.95Q206.48-19.15 206.33-18.4L206.33-18.4Q207.38-19.95 208.93-21.53 210.48-23.1 212.36-24.15 214.23-25.2 216.23-25.2L216.23-25.2Q218.58-25.2 219.43-23.7 220.28-22.2 220.28-19.95L220.28-19.95Q220.28-17.85 219.83-15.45 219.38-13.05 218.93-10.83 218.48-8.6 218.48-7.1L218.48-7.1Q218.48-5.1 219.63-5.1L219.63-5.1Q220.23-5.1 220.68-5.48 221.13-5.85 221.28-6.2L221.28-6.2 221.63-6.05Q221.63-4.2 220.61-2.8 219.58-1.4 218.03-0.63 216.48 0.15 214.88 0.15L214.88 0.15Q212.93 0.15 211.43-1.2 209.93-2.55 209.93-5.6L209.93-5.6Q209.93-7.4 210.41-9.5 210.88-11.6 211.33-13.55 211.78-15.5 211.78-16.75L211.78-16.75Q211.78-17.5 211.51-17.93 211.23-18.35 210.53-18.35L210.53-18.35Q209.38-18.35 208.01-17.3 206.63-16.25 205.66-14.5 204.68-12.75 204.68-10.65L204.68-10.65Q204.68-9.3 205.01-8.05 205.33-6.8 205.33-5.35L205.33-5.35Q205.33-2.65 203.93-1.25 202.53 0.15 200.68 0.15ZM245.58 1.25L245.58 1.25Q242.83 1.25 240.23-0.13 237.63-1.5 235.23-4.9L235.23-4.9Q232.68-2.2 229.08 0.3L229.08 0.3Q227.38 0.3 225.86-1.05 224.33-2.4 223.03-5.85L223.03-5.85Q223.28-5.85 223.56-5.98 223.83-6.1 224.63-6.7L224.63-6.7Q227.63-8.9 229.91-11.43 232.18-13.95 233.76-16.18 235.33-18.4 236.23-19.75L236.23-19.75Q237.63-21.85 238.43-23.08 239.23-24.3 239.73-25.05 240.23-25.8 240.63-26.4L240.63-26.4Q239.48-27.45 238.28-27.93 237.08-28.4 236.03-28.4L236.03-28.4Q234.48-28.4 233.38-27.45 232.28-26.5 232.28-24.9L232.28-24.9Q232.28-23.4 233.43-21.65L233.43-21.65Q230.78-21.65 229.13-22.55 227.48-23.45 226.73-24.9 225.98-26.35 225.98-28L225.98-28Q225.98-29.95 226.93-31.8 227.88-33.65 229.56-34.85 231.23-36.05 233.48-36.05L233.48-36.05Q235.58-36.05 238.08-34.68 240.58-33.3 243.28-30L243.28-30Q244.78-31.9 246.51-33.52 248.23-35.15 250.33-36.3L250.33-36.3Q253.18-35.65 254.38-33.63 255.58-31.6 255.58-29.3L255.58-29.3Q255.58-28.9 255.56-28.53 255.53-28.15 255.48-27.75L255.48-27.75Q255.43-27.8 255.36-27.8 255.28-27.8 255.28-27.8L255.28-27.8Q254.83-27.8 253.98-27.4L253.98-27.4Q251.13-26.05 249.21-24.25 247.28-22.45 246.08-20.73 244.88-19 244.13-17.75L244.13-17.75Q242.63-15.2 241.56-13.43 240.48-11.65 239.61-10.3 238.73-8.95 237.78-7.7L237.78-7.7Q239.08-6.45 240.36-5.9 241.63-5.35 242.73-5.35L242.73-5.35Q244.63-5.35 245.86-6.63 247.08-7.9 247.08-9.6L247.08-9.6Q247.08-10.6 246.58-11.65 246.08-12.7 244.98-13.55L244.98-13.55Q245.88-14.1 247.23-14.38 248.58-14.65 249.38-14.65L249.38-14.65Q251.13-14.65 252.31-13.7 253.48-12.75 254.11-11.2 254.73-9.65 254.73-7.85L254.73-7.85Q254.73-5.7 253.76-3.6 252.78-1.5 250.78-0.13 248.78 1.25 245.58 1.25Z" fill="#000000" data-fill-palette-color="primary"></path></g></svg></g></svg></g><g transform="matrix(1,0,0,1,37.869063624152304,47.45941978993075)"><svg viewBox="0 0 127.10430720000001 13.865946781740426" height="13.865946781740426" width="127.10430720000001"><g transform="matrix(1,0,0,1,0,0)"><svg width="127.10430720000001" viewBox="1.959375 -37.8 469.74062499999997 51.25" height="13.865946781740426" data-palette-color="#e5f3f1"><path d="M11.1-17L11.1-2.45 15.85-1.5Q16-0.55 15.6 0.25L15.6 0.25Q14.7 0.2 13.35 0.15 12 0.1 10.65 0.05 9.3 0 8.35 0L8.35 0Q6.95 0 5.35 0.08 3.75 0.15 2.35 0.25L2.35 0.25Q2.2-0.7 2.45-1.5L2.45-1.5Q3.3-1.7 4.1-1.85 4.9-2 5.85-2.5L5.85-2.5 5.85-32.5 2-33.5Q1.85-34.45 2.25-35.25L2.25-35.25Q3.6-35.2 5.28-35.1 6.95-35 8.35-35L8.35-35 27.1-35Q27.15-34.5 27.15-34.02 27.15-33.55 27.15-33.05L27.15-33.05Q27.15-31.3 26.98-29.6 26.8-27.9 26.55-26.25L26.55-26.25Q26.05-26.05 25.7-26.05 25.35-26.05 24.75-26.1L24.75-26.1 23.5-32.75 11.1-32.75 11.1-19.75 18.95-19.75 19.9-24.15Q20.35-24.3 20.9-24.28 21.45-24.25 21.9-23.9L21.9-23.9Q21.8-22.8 21.75-21.4 21.7-20 21.7-18.55L21.7-18.55Q21.7-16.95 21.75-15.4 21.8-13.85 21.9-12.65L21.9-12.65Q21.45-12.45 20.9-12.45 20.35-12.45 19.9-12.55L19.9-12.55 18.95-17 11.1-17ZM38.25-24.95L38.25-2.5 41.6-1.5Q41.75-0.55 41.35 0.25L41.35 0.25Q40 0.15 38.57 0.08 37.15 0 35.75 0L35.75 0Q34.35 0 32.7 0.08 31.05 0.15 29.65 0.25L29.65 0.25Q29.5-0.7 29.75-1.5L29.75-1.5Q30.7-1.75 31.62-1.95 32.55-2.15 33.25-2.5L33.25-2.5 33.25-22 29.1-22.4Q28.95-23.4 29.35-24.15L29.35-24.15Q31.15-24.4 32.97-24.75 34.8-25.1 36.35-25.5L36.35-25.5Q36.85-25.45 37.3-25.33 37.75-25.2 38.25-24.95L38.25-24.95ZM34.9-30.05L34.9-30.05Q34.05-30.05 33.35-30.6 32.65-31.15 32.25-31.95 31.85-32.75 31.85-33.45L31.85-33.45Q31.85-34.1 32.4-34.77 32.95-35.45 33.77-35.93 34.6-36.4 35.4-36.4L35.4-36.4Q36.3-36.4 37-35.83 37.7-35.25 38.07-34.48 38.45-33.7 38.45-33L38.45-33Q38.45-32.35 37.92-31.65 37.4-30.95 36.57-30.5 35.75-30.05 34.9-30.05ZM52.3-25.05L52.15-21.65 52.2-21.6Q54.59-24 57.15-24.9 59.7-25.8 61.59-25.8L61.59-25.8Q64.84-25.8 66.72-23.95 68.59-22.1 68.59-18.55L68.59-18.55 68.65-2.5 72.15-1.5Q72.3-0.55 71.9 0.25L71.9 0.25Q70.55 0.15 69.05 0.08 67.55 0 66.15 0L66.15 0Q64.75 0 63.2 0.08 61.65 0.15 60.25 0.25L60.25 0.25Q60.09-0.7 60.34-1.5L60.34-1.5Q61.34-1.7 62.12-1.95 62.9-2.2 63.65-2.5L63.65-2.5 63.65-16.3Q63.65-19.7 62.59-21 61.55-22.3 59.25-22.3L59.25-22.3Q57.4-22.3 55.65-21.58 53.9-20.85 52.55-19.3L52.55-19.3 52.55-2.5 55.9-1.5Q56.05-0.55 55.65 0.25L55.65 0.25Q54.3 0.15 52.87 0.08 51.45 0 50.05 0L50.05 0Q48.65 0 47 0.08 45.34 0.15 43.95 0.25L43.95 0.25Q43.8-0.7 44.05-1.5L44.05-1.5Q44.95-1.75 45.84-1.98 46.75-2.2 47.55-2.5L47.55-2.5 47.55-22 43.4-22.4Q43.25-23.4 43.65-24.15L43.65-24.15Q45.5-24.45 47.25-24.8 49-25.15 50.59-25.5L50.59-25.5Q51.45-25.45 52.3-25.05L52.3-25.05ZM84.89 1L84.89 1Q82.09 1 79.77-0.68 77.44-2.35 76.07-5.3 74.69-8.25 74.69-12.05L74.69-12.05Q74.69-16.4 76.24-19.5 77.79-22.6 80.62-24.28 83.44-25.95 87.29-25.95L87.29-25.95Q88.69-25.95 90.12-25.6 91.54-25.25 92.64-24.7L92.64-24.7 92.79-24.7 92.79-34.3 88.64-34.7Q88.49-35.7 88.89-36.45L88.89-36.45Q92.49-37 95.64-37.8L95.64-37.8Q96.59-37.75 97.64-37.25L97.64-37.25 97.64-2.4Q98.09-2 99.14-1.75 100.19-1.5 101.14-1.4L101.14-1.4Q101.29-0.45 100.89 0.35L100.89 0.35Q100.09 0.5 98.97 0.6 97.84 0.7 96.69 0.7L96.69 0.7Q95.04 0.7 93.84 0.4L93.84 0.4Q93.44-0.25 93.22-0.9 92.99-1.55 92.89-2.25L92.89-2.25 92.64-2.25Q90.54-0.45 88.77 0.28 86.99 1 84.89 1ZM86.94-1.9L86.94-1.9Q88.89-1.9 90.29-2.73 91.69-3.55 92.64-4.55L92.64-4.55 92.64-21.95Q91.69-22.8 90.42-23.18 89.14-23.55 87.69-23.55L87.69-23.55Q83.79-23.55 81.89-20.55 79.99-17.55 79.99-12.5L79.99-12.5Q79.99-7.35 81.77-4.63 83.54-1.9 86.94-1.9ZM119.39 13.45L119.39 13.45Q118.54 12.15 117.66 10.45 116.79 8.75 116.54 7.05L116.54 7.05Q116.84 6.8 117.41 6.58 117.99 6.35 118.44 6.35L118.44 6.35 121.64 10.1Q122.99 8.8 124.41 6.18 125.84 3.55 127.09 0.2L127.09 0.2 117.99-22.5 114.14-23.5Q113.99-24.45 114.39-25.25L114.39-25.25Q115.74-25.2 117.31-25.1 118.89-25 120.29-25L120.29-25Q121.74-25 123.41-25.1 125.09-25.2 126.49-25.25L126.49-25.25Q126.64-24.3 126.39-23.5L126.39-23.5Q125.49-23.3 124.61-23.1 123.74-22.9 122.94-22.5L122.94-22.5 127.09-12.45Q127.34-11.85 127.84-10.63 128.34-9.4 128.84-7.85 129.34-6.3 129.64-4.7L129.64-4.7 129.79-4.7Q130.09-5.85 130.44-7.38 130.79-8.9 131.74-11.35L131.74-11.35 135.99-22.5 132.54-23.5Q132.39-24.45 132.79-25.25L132.79-25.25Q134.14-25.2 135.21-25.1 136.29-25 137.69-25L137.69-25Q139.14-25 140.14-25.1 141.14-25.2 142.54-25.25L142.54-25.25Q142.69-24.3 142.44-23.5L142.44-23.5Q141.54-23.3 140.61-23.1 139.69-22.9 138.99-22.5L138.99-22.5 129.19 2.35Q127.89 5.65 126.29 8.15 124.69 10.65 122.94 12.05 121.19 13.45 119.39 13.45ZM144.29-12.5L144.29-12.5Q144.29-16.4 145.81-19.45 147.34-22.5 150.19-24.25 153.04-26 156.89-26L156.89-26Q160.79-26 163.61-24.25 166.44-22.5 167.96-19.45 169.49-16.4 169.49-12.5L169.49-12.5Q169.49-8.5 167.96-5.45 166.44-2.4 163.61-0.7 160.79 1 156.89 1L156.89 1Q153.04 1 150.19-0.7 147.34-2.4 145.81-5.45 144.29-8.5 144.29-12.5ZM164.09-11.8L164.09-11.8Q164.09-15.15 163.34-17.88 162.59-20.6 160.99-22.23 159.39-23.85 156.79-23.85L156.79-23.85Q154.14-23.85 152.56-22.25 150.99-20.65 150.34-18 149.69-15.35 149.69-12.15L149.69-12.15Q149.69-9.25 150.44-6.73 151.19-4.2 152.81-2.68 154.44-1.15 156.99-1.15L156.99-1.15Q159.69-1.15 161.24-2.65 162.79-4.15 163.44-6.6 164.09-9.05 164.09-11.8ZM196.43-24.95L196.43-2.4Q197.28-1.9 198.18-1.75 199.08-1.6 199.93-1.4L199.93-1.4Q200.08-0.5 199.68 0.35L199.68 0.35Q198.88 0.5 197.81 0.6 196.73 0.7 195.58 0.7L195.58 0.7Q193.98 0.7 192.78 0.4L192.78 0.4 191.93-3.3 191.68-3.3Q189.13-1 186.96-0.1 184.78 0.8 182.23 0.8L182.23 0.8Q178.63 0.8 177.06-1.2 175.48-3.2 175.48-6.7L175.48-6.7 175.48-22 171.83-22.4Q171.68-23.4 172.08-24.15L172.08-24.15Q173.88-24.4 175.46-24.75 177.03-25.1 178.58-25.5L178.58-25.5Q179.08-25.45 179.53-25.33 179.98-25.2 180.48-24.95L180.48-24.95 180.48-7.45Q180.48-5.35 181.11-4.35 181.73-3.35 182.78-3.03 183.83-2.7 185.18-2.7L185.18-2.7Q186.78-2.7 188.53-3.65 190.28-4.6 191.43-5.9L191.43-5.9 191.43-22 187.78-22.4Q187.63-23.4 188.03-24.15L188.03-24.15Q189.83-24.4 191.41-24.75 192.98-25.1 194.53-25.5L194.53-25.5Q195.03-25.45 195.48-25.33 195.93-25.2 196.43-24.95L196.43-24.95ZM210.78-16.85L210.78-2.5 215.63-1.5Q215.78-0.55 215.38 0.25L215.38 0.25Q214.48 0.2 213.16 0.15 211.83 0.1 210.53 0.05 209.23 0 208.28 0L208.28 0Q206.88 0 205.23 0.08 203.58 0.15 202.18 0.25L202.18 0.25Q202.03-0.7 202.28-1.5L202.28-1.5Q203.23-1.75 204.16-1.95 205.08-2.15 205.78-2.5L205.78-2.5 205.78-22 201.63-22.4Q201.48-23.4 201.88-24.15L201.88-24.15Q203.68-24.4 205.51-24.75 207.33-25.1 208.88-25.5L208.88-25.5Q209.38-25.45 209.71-25.33 210.03-25.2 210.53-24.95L210.53-24.95 210.53-20.4 210.58-20.35Q212.13-22.65 214.06-24.25 215.98-25.85 218.18-25.85L218.18-25.85Q219.03-25.85 219.86-25.73 220.68-25.6 221.48-25.1L221.48-25.1Q221.58-23.05 221.31-21.2 221.03-19.35 220.48-17.6L220.48-17.6Q220.13-17.55 219.38-17.57 218.63-17.6 218.23-17.8L218.23-17.8 217.53-22.8Q215.78-22.8 214.01-21.53 212.23-20.25 210.78-16.85L210.78-16.85ZM244.18-16.85L244.18-2.5 249.03-1.5Q249.18-0.55 248.78 0.25L248.78 0.25Q247.88 0.2 246.55 0.15 245.23 0.1 243.93 0.05 242.63 0 241.68 0L241.68 0Q240.28 0 238.63 0.08 236.98 0.15 235.58 0.25L235.58 0.25Q235.43-0.7 235.68-1.5L235.68-1.5Q236.63-1.75 237.55-1.95 238.48-2.15 239.18-2.5L239.18-2.5 239.18-22 235.03-22.4Q234.88-23.4 235.28-24.15L235.28-24.15Q237.08-24.4 238.9-24.75 240.73-25.1 242.28-25.5L242.28-25.5Q242.78-25.45 243.1-25.33 243.43-25.2 243.93-24.95L243.93-24.95 243.93-20.4 243.98-20.35Q245.53-22.65 247.45-24.25 249.38-25.85 251.58-25.85L251.58-25.85Q252.43-25.85 253.25-25.73 254.08-25.6 254.88-25.1L254.88-25.1Q254.98-23.05 254.7-21.2 254.43-19.35 253.88-17.6L253.88-17.6Q253.53-17.55 252.78-17.57 252.03-17.6 251.63-17.8L251.63-17.8 250.93-22.8Q249.18-22.8 247.4-21.53 245.63-20.25 244.18-16.85L244.18-16.85ZM262.87-13.5L262.87-12.5Q262.87-7.45 264.9-4.67 266.92-1.9 270.42-1.9L270.42-1.9Q271.97-1.9 273.02-2.08 274.07-2.25 275.1-2.75 276.12-3.25 277.42-4.15L277.42-4.15Q278.22-3.8 278.32-2.95L278.32-2.95Q276.77-1.15 274.62-0.15 272.47 0.85 270.27 0.85L270.27 0.85Q266.47 0.85 263.62-0.75 260.77-2.35 259.17-5.35 257.57-8.35 257.57-12.5L257.57-12.5Q257.57-16.75 259.25-19.73 260.92-22.7 263.75-24.28 266.57-25.85 270.02-25.85L270.02-25.85Q274.47-25.85 276.6-22.88 278.72-19.9 278.72-15.2L278.72-15.2Q278.72-14.85 278.72-14.55 278.72-14.25 278.67-13.9L278.67-13.9 277.97-13.35 262.87-13.5ZM269.97-23.7L269.97-23.7Q268.52-23.7 267.1-22.8 265.67-21.9 264.57-20.1 263.47-18.3 263.07-15.55L263.07-15.55 273.97-16.15Q273.97-20 273.15-21.85 272.32-23.7 269.97-23.7ZM290.22-25.05L290.07-21.65 290.12-21.6Q292.52-24 295.07-24.9 297.62-25.8 299.52-25.8L299.52-25.8Q302.77-25.8 304.65-23.95 306.52-22.1 306.52-18.55L306.52-18.55 306.57-2.5 310.07-1.5Q310.22-0.55 309.82 0.25L309.82 0.25Q308.47 0.15 306.97 0.08 305.47 0 304.07 0L304.07 0Q302.67 0 301.12 0.08 299.57 0.15 298.17 0.25L298.17 0.25Q298.02-0.7 298.27-1.5L298.27-1.5Q299.27-1.7 300.05-1.95 300.82-2.2 301.57-2.5L301.57-2.5 301.57-16.3Q301.57-19.7 300.52-21 299.47-22.3 297.17-22.3L297.17-22.3Q295.32-22.3 293.57-21.58 291.82-20.85 290.47-19.3L290.47-19.3 290.47-2.5 293.82-1.5Q293.97-0.55 293.57 0.25L293.57 0.25Q292.22 0.15 290.8 0.08 289.37 0 287.97 0L287.97 0Q286.57 0 284.92 0.08 283.27 0.15 281.87 0.25L281.87 0.25Q281.72-0.7 281.97-1.5L281.97-1.5Q282.87-1.75 283.77-1.98 284.67-2.2 285.47-2.5L285.47-2.5 285.47-22 281.32-22.4Q281.17-23.4 281.57-24.15L281.57-24.15Q283.42-24.45 285.17-24.8 286.92-25.15 288.52-25.5L288.52-25.5Q289.37-25.45 290.22-25.05L290.22-25.05ZM320.77 0.8L320.77 0.8Q319.17 0.8 317.87 0.2 316.57-0.4 315.84-1.88 315.12-3.35 315.12-5.95L315.12-5.95 315.12-21.9 311.62-21.9Q311.32-22.45 311.29-23.03 311.27-23.6 311.37-24.15L311.37-24.15Q313.47-24.15 314.52-24.7 315.57-25.25 316.14-26.6 316.72-27.95 317.37-30.25L317.37-30.25 320.02-30.25 320.02-24.65 325.27-24.65Q325.97-23.2 325.27-21.9L325.27-21.9 320.02-21.9 320.02-7.2Q320.02-4.9 320.24-3.73 320.47-2.55 321.02-2.13 321.57-1.7 322.52-1.7L322.52-1.7Q323.32-1.7 324.07-2 324.82-2.3 325.52-2.7L325.52-2.7Q326.22-2.25 326.27-1.2L326.27-1.2Q325.72-0.55 324.27 0.13 322.82 0.8 320.77 0.8ZM335.37 0.85L335.37 0.85Q332.37 0.85 330.32-0.73 328.27-2.3 328.27-5.5L328.27-5.5Q328.27-8 329.49-9.6 330.72-11.2 332.79-12.08 334.87-12.95 337.42-13.25 339.97-13.55 342.62-13.5L342.62-13.5 342.67-17.9Q342.72-20.7 341.62-22.23 340.52-23.75 338.27-23.75L338.27-23.75Q337.02-23.75 335.87-23.58 334.72-23.4 333.57-23L333.57-23 332.92-17.7Q332.52-17.5 331.82-17.48 331.12-17.45 330.72-17.5L330.72-17.5Q330.27-19.15 329.97-20.8 329.67-22.45 329.72-24L329.72-24Q332.07-25.1 334.44-25.55 336.82-26 339.62-26L339.62-26Q342.42-26 344.14-25.1 345.87-24.2 346.69-22 347.52-19.8 347.52-15.85L347.52-15.85 347.52-2.45Q348.37-2.05 349.27-1.88 350.17-1.7 351.02-1.45L351.02-1.45Q351.17-0.5 350.77 0.3L350.77 0.3Q349.97 0.45 348.84 0.55 347.72 0.65 346.57 0.65L346.57 0.65Q344.92 0.65 343.72 0.35L343.72 0.35 343.02-2.25 342.82-2.25Q341.57-0.95 339.72-0.05 337.87 0.85 335.37 0.85ZM337.27-1.9L337.27-1.9Q338.67-1.9 340.27-2.78 341.87-3.65 342.62-4.75L342.62-4.75 342.62-11.5Q337.47-11.5 335.37-10.28 333.27-9.05 333.27-6L333.27-6Q333.27-3.95 334.37-2.93 335.47-1.9 337.27-1.9ZM361.01-37.25L361.01-2.5 364.86-1.5Q365.01-0.55 364.61 0.25L364.61 0.25Q363.26 0.15 361.59 0.08 359.91 0 358.51 0L358.51 0Q357.11 0 355.46 0.08 353.81 0.15 352.41 0.25L352.41 0.25Q352.26-0.7 352.51-1.5L352.51-1.5Q353.46-1.75 354.39-1.95 355.31-2.15 356.01-2.5L356.01-2.5 356.01-34.3 351.86-34.7Q351.71-35.7 352.11-36.45L352.11-36.45Q353.91-36.7 355.74-37.05 357.56-37.4 359.11-37.8L359.11-37.8Q359.61-37.75 360.06-37.63 360.51-37.5 361.01-37.25L361.01-37.25ZM390.81 1.5L380.91-22.5 377.06-23.5Q376.91-24.45 377.31-25.25L377.31-25.25Q378.66-25.2 380.33-25.1 382.01-25 383.41-25L383.41-25Q384.86-25 386.66-25.1 388.46-25.2 389.86-25.25L389.86-25.25Q390.01-24.3 389.76-23.5L389.76-23.5Q388.86-23.3 387.98-23.1 387.11-22.9 386.31-22.5L386.31-22.5 390.61-11.5Q391.31-9.8 391.83-8.1 392.36-6.4 392.71-4.7L392.71-4.7 392.86-4.7Q393.26-6.15 393.63-7.53 394.01-8.9 394.51-10.35L394.51-10.35 399.26-22.5 395.31-23.5Q395.16-24.45 395.56-25.25L395.56-25.25Q396.91-25.2 398.11-25.1 399.31-25 400.71-25L400.71-25Q402.16-25 403.33-25.1 404.51-25.2 405.91-25.25L405.91-25.25Q406.06-24.3 405.81-23.5L405.81-23.5Q404.86-23.3 403.93-23.1 403.01-22.9 402.26-22.5L402.26-22.5 393.06 0.85Q392.71 1.05 391.98 1.28 391.26 1.5 390.81 1.5L390.81 1.5ZM415.81-24.95L415.81-2.5 419.16-1.5Q419.31-0.55 418.91 0.25L418.91 0.25Q417.56 0.15 416.13 0.08 414.71 0 413.31 0L413.31 0Q411.91 0 410.26 0.08 408.61 0.15 407.21 0.25L407.21 0.25Q407.06-0.7 407.31-1.5L407.31-1.5Q408.26-1.75 409.18-1.95 410.11-2.15 410.81-2.5L410.81-2.5 410.81-22 406.66-22.4Q406.51-23.4 406.91-24.15L406.91-24.15Q408.71-24.4 410.53-24.75 412.36-25.1 413.91-25.5L413.91-25.5Q414.41-25.45 414.86-25.33 415.31-25.2 415.81-24.95L415.81-24.95ZM412.46-30.05L412.46-30.05Q411.61-30.05 410.91-30.6 410.21-31.15 409.81-31.95 409.41-32.75 409.41-33.45L409.41-33.45Q409.41-34.1 409.96-34.77 410.51-35.45 411.33-35.93 412.16-36.4 412.96-36.4L412.96-36.4Q413.86-36.4 414.56-35.83 415.26-35.25 415.63-34.48 416.01-33.7 416.01-33L416.01-33Q416.01-32.35 415.48-31.65 414.96-30.95 414.13-30.5 413.31-30.05 412.46-30.05ZM428.45-37.25L428.45-22.75 428.7-22.5Q430.7-24.25 432.6-24.88 434.5-25.5 436.2-25.5L436.2-25.5Q439.45-25.5 441.8-23.9 444.15-22.3 445.43-19.38 446.7-16.45 446.7-12.45L446.7-12.45Q446.7-8.1 444.98-5.1 443.25-2.1 440.23-0.55 437.2 1 433.2 1L433.2 1Q431.15 1 428.48 0.5 425.8 0 423.7-0.9L423.7-0.9 423.7-34.3 419.55-34.7Q419.4-35.7 419.8-36.45L419.8-36.45Q421.6-36.7 423.25-37.05 424.9-37.4 426.45-37.8L426.45-37.8Q427.4-37.75 428.45-37.25L428.45-37.25ZM428.7-19.6L428.7-2.15Q429.8-1.65 430.9-1.33 432-1 433.7-1L433.7-1Q437.25-1 439.3-4 441.35-7 441.35-12.45L441.35-12.45Q441.35-17.7 439.38-20.13 437.4-22.55 434.7-22.55L434.7-22.55Q433.45-22.55 432.25-22.08 431.05-21.6 430.1-20.93 429.15-20.25 428.7-19.6L428.7-19.6ZM455.85-13.5L455.85-12.5Q455.85-7.45 457.88-4.67 459.9-1.9 463.4-1.9L463.4-1.9Q464.95-1.9 466-2.08 467.05-2.25 468.08-2.75 469.1-3.25 470.4-4.15L470.4-4.15Q471.2-3.8 471.3-2.95L471.3-2.95Q469.75-1.15 467.6-0.15 465.45 0.85 463.25 0.85L463.25 0.85Q459.45 0.85 456.6-0.75 453.75-2.35 452.15-5.35 450.55-8.35 450.55-12.5L450.55-12.5Q450.55-16.75 452.23-19.73 453.9-22.7 456.73-24.28 459.55-25.85 463-25.85L463-25.85Q467.45-25.85 469.58-22.88 471.7-19.9 471.7-15.2L471.7-15.2Q471.7-14.85 471.7-14.55 471.7-14.25 471.65-13.9L471.65-13.9 470.95-13.35 455.85-13.5ZM462.95-23.7L462.95-23.7Q461.5-23.7 460.08-22.8 458.65-21.9 457.55-20.1 456.45-18.3 456.05-15.55L456.05-15.55 466.95-16.15Q466.95-20 466.13-21.85 465.3-23.7 462.95-23.7Z" opacity="1" transform="matrix(1,0,0,1,0,0)" fill="#000000" class="slogan-text-1" data-fill-palette-color="secondary" id="text-1"></path></svg></g></svg></g></svg></g></svg></g><g><svg viewBox="0 0 100.61983908106079 123.73741863899238" height="123.73741863899238" width="100.61983908106079"><g><svg xmlns="http://www.w3.org/2000/svg" xmlns:xlink="http://www.w3.org/1999/xlink" version="1.1" x="0" y="0" viewBox="13.412 5.004 73.17899999999999 89.99199999999999" enable-background="new 0 0 100 100" xml:space="preserve" height="123.73741863899238" width="100.61983908106079" class="icon-icon-0" data-fill-palette-color="accent" id="icon-0"><g fill="#3541e4" data-fill-palette-color="accent"><path d="M80.612 8.182H57.369C54.216 6.211 49.629 5.004 43.597 5.004 38.607 5.004 33.953 5.923 30.143 7.435H18.933C15.884 7.435 13.412 11.525 13.412 16.572V23.854C13.412 28.903 15.884 32.993 18.933 32.993H30.733C30.837 32.993 30.938 32.976 31.04 32.968L44.902 49.772A5.98 5.98 0 0 0 52.88 50.459V55.229C48.059 55.559 44.247 59.569 44.247 64.477A9.275 9.275 0 0 0 49.963 73.04V72.784A3.563 3.563 0 0 1 53.52 69.227 3.56 3.56 0 0 1 57.077 72.784V73.04A9.27 9.27 0 0 0 62.792 64.477C62.792 59.569 58.983 55.559 54.16 55.229V50.33C55.046 51.162 56.166 51.668 57.395 51.668 60.241 51.668 62.552 48.992 62.552 45.692V26.887L70.07 32.681C72.743 34.617 76.347 34.203 78.12 31.754 79.894 29.308 79.167 25.753 76.494 23.816L69.212 18.207H80.614C83.914 18.207 86.591 15.962 86.591 13.194 86.589 10.425 83.912 8.182 80.612 8.182M52.235 39.914L43.072 28.805C43.041 28.506 43.013 28.139 42.956 27.663 42.672 25.232 44.948 23.225 47.394 23.225 49.843 23.225 52.234 25.568 52.234 28.016zM55.721 61.229C55.721 62.442 54.734 63.43 53.519 63.43S51.317 62.442 51.317 61.229A2.2 2.2 0 0 1 52.88 59.131V60.026A0.64 0.64 0 0 0 54.16 60.026V59.131A2.2 2.2 0 0 1 55.721 61.229" fill="#000000" data-fill-palette-color="accent"></path><path d="M53.519 70.078A2.706 2.706 0 0 0 50.815 72.781V92.287C50.815 93.781 52.028 94.996 53.519 94.996S56.224 93.781 56.224 92.287V72.781A2.706 2.706 0 0 0 53.519 70.078" fill="#000000" data-fill-palette-color="accent"></path></g></svg></g></svg></g></svg></g></svg></g><g><path d="M0 123.6c0-68.262 55.338-123.6 123.6-123.6 52.068 0 96.617 32.196 114.823 77.766h-1.288c-18.141-44.895-62.139-76.571-113.535-76.571-67.602 0-122.405 54.803-122.405 122.405 0 67.602 54.803 122.405 122.405 122.405 51.396 0 95.394-31.676 113.535-76.571h1.288c-18.206 45.57-62.755 77.766-114.823 77.766-68.262 0-123.6-55.338-123.6-123.6z" fill="#000000" stroke="transparent" data-fill-palette-color="tertiary"></path></g></svg></g><defs></defs></svg><rect width="395.52" height="247.2" fill="none" stroke="none" visibility="hidden"></rect></g></svg></g></svg>