<svg xmlns="http://www.w3.org/2000/svg" version="1.1" xmlns:xlink="http://www.w3.org/1999/xlink" xmlns:svgjs="http://svgjs.dev/svgjs" width="2000" height="670" viewBox="0 0 2000 670"><g transform="matrix(1,0,0,1,-2.1793202149617628,-2.5193251333023454)"><svg viewBox="0 0 310 104" data-background-color="#000000" preserveAspectRatio="xMidYMid meet" height="670" width="2000" xmlns="http://www.w3.org/2000/svg" xmlns:xlink="http://www.w3.org/1999/xlink"><g id="tight-bounds" transform="matrix(1,0,0,1,0.3377946333190778,0.39105942367677926)"><svg viewBox="0 0 309.32441073336184 103.21788115264644" height="103.21788115264644" width="309.32441073336184"><g><svg viewBox="0 0 309.32441073336184 103.21788115264644" height="103.21788115264644" width="309.32441073336184"><g><svg viewBox="0 0 309.32441073336184 103.21788115264644" height="103.21788115264644" width="309.32441073336184"><g id="textblocktransform"><svg viewBox="0 0 309.32441073336184 103.21788115264644" height="103.21788115264644" width="309.32441073336184" id="textblock"><g><svg viewBox="0 0 309.32441073336184 72.24693599999999" height="72.24693599999999" width="309.32441073336184"><g><svg><g></g><g></g></svg></g><g><svg><g><svg></svg></g><g></g></svg></g><g id="text-0"><svg viewBox="0 0 309.32441073336184 72.24693599999999" height="72.24693599999999" width="309.32441073336184"><g transform="matrix(1,0,0,1,0,0)"><svg width="205.48923599999998" viewBox="-0.1 -36.25 104.08999999999999 36.6" height="72.24693599999999" data-palette-color="#4563f9"><g class="wordmark-text-0" data-fill-palette-color="primary"><path d="M23.9 0.35L23.9 0.35Q22.1 0.35 19.83-0.3 17.55-0.95 15.08-1.73 12.6-2.5 10.15-2.85L10.15-2.85Q8.45-1.25 6.98-0.58 5.5 0.1 4.35 0.1L4.35 0.1Q2.9 0.1 1.9-0.75 0.9-1.6 0.4-2.93-0.1-4.25-0.1-5.65L-0.1-5.65Q-0.1-7.1 0.43-8.4 0.95-9.7 2.05-10.53 3.15-11.35 4.85-11.35L4.85-11.35Q5.2-11.35 5.6-11.3 6-11.25 6.45-11.15L6.45-11.15Q7.4-14.05 8.13-17.57 8.85-21.1 9.28-24.5 9.7-27.9 9.7-30.4L9.7-30.4Q9.7-31.4 9.6-31.83 9.5-32.25 9.25-32.7L9.25-32.7 9.2-32.85Q9.8-34.45 11.2-35.35 12.6-36.25 14.15-36.25L14.15-36.25Q15.85-36.25 16.95-35.02 18.05-33.8 18.05-30.95L18.05-30.95Q18.05-29.15 17.63-26.48 17.2-23.8 16.45-20.73 15.7-17.65 14.8-14.65 13.9-11.65 13-9.3L13-9.3Q15.2-8.8 17.43-8.15 19.65-7.5 21.8-7.5L21.8-7.5Q23.45-7.5 24.98-8.1 26.5-8.7 27.85-10.3L27.85-10.3Q28.85-9.65 29.33-8.45 29.8-7.25 29.8-5.9L29.8-5.9Q29.8-4.4 29.18-2.98 28.55-1.55 27.25-0.6 25.95 0.35 23.9 0.35ZM50.9 0.25L50.9 0.25Q49.15 0.25 47.85-0.9 46.55-2.05 46.55-4.65L46.55-4.65Q46.55-4.9 46.55-5.15 46.55-5.4 46.6-5.65L46.6-5.65Q45.1-2.65 43.22-1.23 41.35 0.2 39.45 0.2L39.45 0.2Q37.7 0.2 36.15-1.03 34.6-2.25 33.65-4.65 32.7-7.05 32.7-10.45L32.7-10.45Q32.7-13.95 33.67-16.7 34.65-19.45 36.25-21.35 37.85-23.25 39.75-24.23 41.65-25.2 43.45-25.2L43.45-25.2Q45.45-25.2 47.05-23.98 48.65-22.75 49.25-20.1L49.25-20.1Q49.4-20.95 49.47-21.65 49.55-22.35 49.55-22.6L49.55-22.6Q49.6-23.95 50.92-24.6 52.25-25.25 53.85-25.25L53.85-25.25Q55.25-25.25 56.5-24.7 57.75-24.15 58.2-22.85L58.2-22.85 58.3-22.55Q57.7-21.2 57.1-19.3 56.5-17.4 56-15.33 55.5-13.25 55.2-11.28 54.9-9.3 54.9-7.8L54.9-7.8Q54.9-6.15 55.25-5.53 55.6-4.9 56.1-4.9L56.1-4.9Q56.95-4.9 57.65-6.1L57.65-6.1 58.05-5.9Q58.05-4.2 56.95-2.8 55.85-1.4 54.2-0.58 52.55 0.25 50.9 0.25ZM42.75-6.1L42.75-6.1Q44.05-6.1 45.62-8.43 47.2-10.75 48.35-15.1L48.35-15.1Q48.45-15.55 48.55-15.98 48.65-16.4 48.7-16.8L48.7-16.8Q47.9-18.65 47.02-19.43 46.15-20.2 45.3-20.2L45.3-20.2Q44.05-20.2 42.97-18.88 41.9-17.55 41.22-15.55 40.55-13.55 40.55-11.55L40.55-11.55Q40.55-8.8 41.17-7.45 41.8-6.1 42.75-6.1ZM68 0.2L68 0.2Q66.4 0.2 64.97-0.53 63.55-1.25 62.67-2.8 61.8-4.35 61.8-6.75L61.8-6.75Q61.8-8.05 62.05-10.15 62.3-12.25 62.72-14.75 63.15-17.25 63.6-19.75L63.6-19.75Q62.6-19.7 61.67-19.55 60.75-19.4 59.85-19.2L59.85-19.2 59.75-19.55Q60.75-20.75 61.85-21.6 62.95-22.45 64.15-23L64.15-23Q64.8-26.3 65.25-28.73 65.7-31.15 65.7-31.6L65.7-31.6Q65.7-32.45 67.02-33 68.35-33.55 70-33.55L70-33.55Q71.45-33.55 72.72-33 74-32.45 74.45-31.15L74.45-31.15Q74.15-30.85 73.6-28.93 73.05-27 72.45-24.25L72.45-24.25Q73.4-24.2 74.4-24.15 75.4-24.1 76.45-24L76.45-24Q76.55-23.7 76.6-23.35 76.65-23 76.65-22.6L76.65-22.6Q76.65-21.85 76.42-20.98 76.2-20.1 75.9-19.4L75.9-19.4Q74.7-19.5 73.65-19.63 72.6-19.75 71.6-19.8L71.6-19.8Q71.2-17.65 70.87-15.5 70.55-13.35 70.37-11.6 70.2-9.85 70.2-8.85L70.2-8.85Q70.2-6.75 70.97-6.05 71.75-5.35 72.85-5.35L72.85-5.35Q73.85-5.35 74.65-5.75 75.45-6.15 75.8-6.7L75.8-6.7 76.3-6.55Q76-4.5 74.7-2.98 73.4-1.45 71.6-0.63 69.8 0.2 68 0.2ZM89.44 0.35L89.44 0.35Q85.69 0.35 83.24-1.15 80.79-2.65 79.62-5.13 78.44-7.6 78.44-10.4L78.44-10.4Q78.44-13.05 79.42-15.7 80.39-18.35 82.27-20.53 84.14-22.7 86.84-24.03 89.54-25.35 93.04-25.35L93.04-25.35Q96.79-25.35 99.22-23.83 101.64-22.3 102.82-19.8 103.99-17.3 103.99-14.45L103.99-14.45Q103.99-11.85 103.04-9.22 102.09-6.6 100.22-4.42 98.34-2.25 95.64-0.95 92.94 0.35 89.44 0.35ZM90.79-3.9L90.79-3.9Q92.14-3.9 93.04-5.3 93.94-6.7 94.39-8.88 94.84-11.05 94.84-13.3L94.84-13.3Q94.84-15.3 94.47-17.07 94.09-18.85 93.34-19.98 92.59-21.1 91.39-21.1L91.39-21.1Q90.09-21.1 89.17-19.7 88.24-18.3 87.79-16.15 87.34-14 87.34-11.7L87.34-11.7Q87.34-9.7 87.72-7.93 88.09-6.15 88.84-5.03 89.59-3.9 90.79-3.9Z" fill="#ffffff" data-fill-palette-color="primary"></path></g></svg></g><g><svg xmlns="http://www.w3.org/2000/svg" xmlns:xlink="http://www.w3.org/1999/xlink" version="1.1" x="219.47043599999998" y="0" viewBox="24.271 29.317 49.354 39.683" enable-background="new 0 0 100 100" xml:space="preserve" height="72.24693599999999" width="89.85397473336188" class="icon-dxe-0" data-fill-palette-color="accent" id="dxe-0"><polygon points="66,69 65,69 65,44 70.375,44 49.451,30.482 41,35.524 41,34 37,34 37,38.624 27.921,44 32,44 32,69 31,69 31,45   24.271,45 36,38.053 36,33 42,33 42,33.764 49.451,29.317 73.625,45 66,45 " fill="#ffffff" data-fill-palette-color="accent"></polygon></svg></g></svg></g></svg></g><g transform="matrix(1,0,0,1,0,89.30270366313599)"><svg viewBox="0 0 217.45506074555337 13.915177489510453" height="13.915177489510453" width="217.45506074555337"><g transform="matrix(1,0,0,1,0,0)"><svg width="217.45506074555337" viewBox="1.9499999999999997 -35.16 676.3399999999999 43.29" height="13.915177489510453" data-palette-color="#5c66eb"><path d="M10.62 0.32L10.62 0.32Q6.15 0.32 4.22-1.12 2.29-2.56 2.17-5.88L2.17-5.88Q1.73-17.43 2.17-28.98L2.17-28.98Q2.29-32.01 4.25-33.58 6.2-35.16 10.57-35.16L10.57-35.16Q15.09-35.16 17.15-33.72 19.21-32.28 19.31-28.96L19.31-28.96Q19.36-28.15 19.36-26.97 19.36-25.78 19.32-24.6 19.29-23.41 19.26-22.58L19.26-22.58 15.87-22.58Q15.92-24.17 15.93-26.05 15.94-27.93 15.87-29.52L15.87-29.52Q15.84-30.98 14.66-31.62 13.48-32.25 10.57-32.25L10.57-32.25Q7.91-32.25 6.77-31.62 5.64-30.98 5.57-29.52L5.57-29.52Q5.18-17.43 5.57-5.32L5.57-5.32Q5.64-3.88 6.77-3.23 7.91-2.59 10.62-2.59L10.62-2.59Q13.67-2.59 14.9-3.23 16.14-3.88 16.21-5.32L16.21-5.32Q16.28-7.03 16.22-9 16.16-10.96 16.09-12.67L16.09-12.67 19.56-12.67Q19.68-10.96 19.7-9.29 19.73-7.62 19.6-5.88L19.6-5.88Q19.46-2.56 17.37-1.12 15.28 0.32 10.62 0.32ZM30.73 0.29L30.73 0.29Q26.76 0.29 25.12-1.07 23.48-2.44 23.36-5.62L23.36-5.62Q23.22-7.42 23.17-9.63 23.12-11.84 23.17-14.09 23.22-16.33 23.36-18.16L23.36-18.16Q23.48-21.34 25.13-22.71 26.78-24.07 30.73-24.07L30.73-24.07Q34.74-24.07 36.34-22.71 37.94-21.34 38.06-18.16L38.06-18.16Q38.21-16.36 38.25-14.15 38.3-11.94 38.25-9.7 38.21-7.47 38.06-5.62L38.06-5.62Q37.94-2.47 36.34-1.09 34.74 0.29 30.73 0.29ZM30.73-2.44L30.73-2.44Q32.98-2.44 33.93-2.99 34.89-3.54 34.96-4.81L34.96-4.81Q35.2-8.62 35.2-11.89 35.2-15.16 34.96-18.97L34.96-18.97Q34.89-20.26 33.96-20.8 33.03-21.34 30.73-21.34L30.73-21.34Q28.44-21.34 27.5-20.8 26.56-20.26 26.49-18.97L26.49-18.97Q26.27-15.16 26.25-11.88 26.24-8.59 26.49-4.81L26.49-4.81Q26.54-3.54 27.52-2.99 28.51-2.44 30.73-2.44ZM45.62-19.19L45.62 0 42.48 0 42.48-23.75 45.62-23.75 45.62-21.53 46.38-21.53Q47.14-22.75 48.37-23.41 49.6-24.07 51.48-24.07L51.48-24.07Q54.24-24.07 55.59-22.86 56.93-21.66 56.93-18.82L56.93-18.82 56.93 0 53.8 0 53.8-19.09Q53.8-20.31 53.03-20.86 52.27-21.41 50.56-21.41L50.56-21.41Q48.85-21.41 47.55-20.83 46.26-20.24 45.62-19.19L45.62-19.19ZM64.52-19.19L64.52 0 61.37 0 61.37-23.75 64.52-23.75 64.52-21.53 65.28-21.53Q66.03-22.75 67.27-23.41 68.5-24.07 70.38-24.07L70.38-24.07Q73.14-24.07 74.48-22.86 75.82-21.66 75.82-18.82L75.82-18.82 75.82 0 72.7 0 72.7-19.09Q72.7-20.31 71.93-20.86 71.16-21.41 69.45-21.41L69.45-21.41Q67.74-21.41 66.45-20.83 65.15-20.24 64.52-19.19L64.52-19.19ZM87.61 0.29L87.61 0.29Q83.58 0.29 81.86-0.98 80.14-2.25 80.02-5.13L80.02-5.13Q79.92-6.93 79.89-9.38 79.85-11.82 79.89-14.28 79.92-16.75 80.02-18.58L80.02-18.58Q80.14-21.53 81.91-22.8 83.68-24.07 87.61-24.07L87.61-24.07Q91.32-24.07 92.98-22.83 94.64-21.58 94.81-18.73L94.81-18.73Q94.86-17.87 94.91-15.75 94.96-13.62 94.77-11.23L94.77-11.23 83.07-11.23Q83.07-9.69 83.1-8.11 83.12-6.52 83.19-4.81L83.19-4.81Q83.22-3.47 84.22-2.95 85.22-2.44 87.51-2.44L87.51-2.44Q89.78-2.44 90.71-2.95 91.64-3.47 91.74-4.81L91.74-4.81Q91.81-6.15 91.74-8.47L91.74-8.47 94.77-8.47Q94.89-7.76 94.88-6.82 94.86-5.88 94.81-5.13L94.81-5.13Q94.64-2.25 93.07-0.98 91.49 0.29 87.61 0.29ZM83.07-13.82L83.07-13.82 91.79-13.82Q91.84-15.48 91.84-16.99 91.84-18.51 91.74-19.07L91.74-19.07Q91.64-20.29 90.69-20.81 89.74-21.34 87.61-21.34L87.61-21.34Q85.24-21.34 84.23-20.81 83.22-20.29 83.19-19.07L83.19-19.07Q83.12-17.65 83.08-16.36 83.05-15.06 83.07-13.82ZM113.37-15.41L113.37-15.41 110.29-15.41Q110.39-16.26 110.38-17.36 110.36-18.46 110.36-19.07L110.36-19.07Q110.34-20.36 109.35-20.85 108.36-21.34 106.12-21.34L106.12-21.34Q103.82-21.34 102.84-20.85 101.87-20.36 101.84-19.07L101.84-19.07Q101.67-15.23 101.67-11.93 101.67-8.62 101.84-4.81L101.84-4.81Q101.87-3.47 102.84-2.95 103.82-2.44 106.09-2.44L106.09-2.44Q108.34-2.44 109.34-2.95 110.34-3.47 110.36-4.81L110.36-4.81Q110.36-5.47 110.38-6.41 110.39-7.35 110.29-8.47L110.29-8.47 113.37-8.47Q113.49-7.76 113.48-6.82 113.46-5.88 113.42-5.13L113.42-5.13Q113.27-2.25 111.62-0.98 109.97 0.29 106.09 0.29L106.09 0.29Q102.18 0.29 100.49-0.98 98.79-2.25 98.67-5.13L98.67-5.13Q98.57-6.93 98.53-9.38 98.5-11.82 98.53-14.28 98.57-16.75 98.67-18.58L98.67-18.58Q98.79-21.53 100.51-22.8 102.23-24.07 106.12-24.07L106.12-24.07Q109.97-24.07 111.67-22.83 113.37-21.58 113.42-18.73L113.42-18.73Q113.46-17.99 113.48-17.05 113.49-16.11 113.37-15.41ZM124.86 0.29L124.86 0.29Q121.05 0.29 119.72-0.98 118.39-2.25 118.39-5.13L118.39-5.13 118.39-21.02 116.05-21.02 116.05-23.75 118.47-23.75 118.47-30.49 121.57-30.49 121.57-23.75 126.94-23.75 126.94-21.02 121.54-21.02 121.54-4.79Q121.54-3.44 122.1-2.93 122.67-2.42 124.94-2.42L124.94-2.42Q125.86-2.42 126.36-2.45 126.86-2.49 127.52-2.51L127.52-2.51 127.52 0.1Q126.94 0.2 126.25 0.24 125.57 0.29 124.86 0.29ZM133.82-31.69L133.82-28.17 130.67-28.17 130.67-31.69 133.82-31.69ZM133.82-23.75L133.82 0 130.65 0 130.65-23.75 133.82-23.75ZM142.12-19.19L142.12 0 138.97 0 138.97-23.75 142.12-23.75 142.12-21.53 142.88-21.53Q143.63-22.75 144.87-23.41 146.1-24.07 147.98-24.07L147.98-24.07Q150.74-24.07 152.08-22.86 153.42-21.66 153.42-18.82L153.42-18.82 153.42 0 150.3 0 150.3-19.09Q150.3-20.31 149.53-20.86 148.76-21.41 147.05-21.41L147.05-21.41Q145.34-21.41 144.05-20.83 142.75-20.24 142.12-19.19L142.12-19.19ZM164.55 6.86L164.55 6.86Q161.23 6.86 159.21 6.03 157.18 5.2 157.06 3.42L157.06 3.42Q157.06 3.22 157.03 2.95 157.01 2.69 157.01 2.39L157.01 2.39Q157.11 1.32 158.1 0.66 159.08 0 160.38-0.15L160.38-0.15 160.38-0.76Q157.96-1.27 157.89-2.86L157.89-2.86Q157.86-3.27 157.89-3.69L157.89-3.69Q157.91-4.52 158.66-5.08 159.4-5.64 160.33-5.74L160.33-5.74 160.33-6.35Q157.79-7.45 157.62-11.21L157.62-11.21Q157.55-12.67 157.51-13.76 157.47-14.84 157.5-15.95 157.52-17.07 157.62-18.58L157.62-18.58Q157.74-21.48 159.32-22.78 160.89-24.07 164.36-24.07L164.36-24.07Q166.9-24.07 168.39-23.49 169.87-22.9 170.53-21.66L170.53-21.66 171.22-21.66Q171.39-23.75 174.37-23.75L174.37-23.75 174.37-21.02 173.51-21.02Q171.34-21.02 171.24-18.51L171.24-18.51 171.19-16.58Q171.24-15.16 171.24-14.01 171.24-12.87 171.1-11.21L171.1-11.21Q170.97-8.25 169.44-6.98 167.9-5.71 164.36-5.71L164.36-5.71Q162.31-5.74 161.38-5.4 160.45-5.05 160.45-4.27L160.45-4.27 160.45-4.08Q160.5-3.37 161.48-3.08 162.45-2.78 164.72-2.73L164.72-2.73Q168.36-2.64 170.3-1.7 172.24-0.76 172.41 1.42L172.41 1.42 172.41 2.69Q172.24 4.98 170.07 5.92 167.9 6.86 164.55 6.86ZM164.36-8.47L164.36-8.47Q166.31-8.47 167.13-9.01 167.95-9.55 168.02-10.77L168.02-10.77Q168.14-12.5 168.14-14.81 168.14-17.11 168.02-19.02L168.02-19.02Q167.95-20.31 167.12-20.83 166.29-21.34 164.36-21.34L164.36-21.34Q162.43-21.34 161.6-20.81 160.77-20.29 160.67-18.99L160.67-18.99Q160.4-14.36 160.67-10.82L160.67-10.82Q160.77-9.62 161.62-9.05 162.48-8.47 164.36-8.47ZM164.63 4.27L164.63 4.27Q166.73 4.27 168.06 3.88 169.39 3.49 169.48 2.49L169.48 2.49Q169.51 2.22 169.5 1.99 169.48 1.76 169.48 1.51L169.48 1.51Q169.39 0.46 168.08 0.16 166.77-0.15 164.63-0.2L164.63-0.2Q162.55-0.24 161.32 0.12 160.08 0.49 159.96 1.54L159.96 1.54 159.96 2.49Q160.08 3.56 161.33 3.92 162.58 4.27 164.63 4.27ZM200.63-3.13L200.63 0 186.45 0 186.45-34.86 189.84-34.86 189.84-3.13 200.63-3.13ZM208.86 0.27L208.86 0.27Q205.88 0.27 204.45-0.9 203.02-2.08 202.78-4.57L202.78-4.57Q202.75-5.05 202.72-5.54 202.68-6.03 202.73-6.49L202.73-6.49Q202.9-8.67 204.1-10.14 205.29-11.62 208.64-12.84L208.64-12.84Q210-13.33 211.52-13.72 213.03-14.11 214.52-14.48L214.52-14.48 214.52-18.99Q214.52-20.19 213.62-20.76 212.71-21.34 210.47-21.34L210.47-21.34Q208.51-21.34 207.5-20.85 206.49-20.36 206.39-19.07L206.39-19.07Q206.34-18.46 206.34-17.32 206.34-16.19 206.39-15.41L206.39-15.41 203.34-15.41Q203.29-16.02 203.24-16.99 203.19-17.97 203.27-18.73L203.27-18.73Q203.39-21.56 205.11-22.81 206.83-24.07 210.59-24.07L210.59-24.07Q214.52-24.07 216.05-22.71 217.57-21.34 217.6-18.21L217.6-18.21 217.6 0 214.52 0 214.52-2.25 213.84-2.25Q213.23-1.03 212.09-0.38 210.96 0.27 208.86 0.27ZM209.64-2.37L209.64-2.37Q213.15-2.37 214.5-4.47L214.5-4.47 214.5-11.87Q213.32-11.62 212.09-11.29 210.86-10.96 209.2-10.4L209.2-10.4Q207.22-9.67 206.56-8.72 205.9-7.76 205.8-6.49L205.8-6.49Q205.83-6.13 205.84-5.7 205.85-5.27 205.9-4.81L205.9-4.81Q206.07-3.64 207.07-3 208.08-2.37 209.64-2.37ZM225.24-19.19L225.24 0 222.09 0 222.09-23.75 225.24-23.75 225.24-21.53 225.99-21.53Q226.75-22.75 227.98-23.41 229.22-24.07 231.1-24.07L231.1-24.07Q233.85-24.07 235.2-22.86 236.54-21.66 236.54-18.82L236.54-18.82 236.54 0 233.41 0 233.41-19.09Q233.41-20.31 232.65-20.86 231.88-21.41 230.17-21.41L230.17-21.41Q228.46-21.41 227.16-20.83 225.87-20.24 225.24-19.19L225.24-19.19ZM246.23 0.29L246.23 0.29Q243.47 0.29 242.13-0.93 240.79-2.15 240.71-4.96L240.71-4.96Q240.61-6.96 240.58-9.35 240.54-11.74 240.58-14.21 240.61-16.67 240.71-18.82L240.71-18.82Q240.79-21.66 242.16-22.86 243.54-24.07 246.28-24.07L246.28-24.07Q248.3-24.07 249.46-23.45 250.62-22.83 251.48-21.53L251.48-21.53 252.11-21.53 252.11-31.69 255.24-31.69 255.24 0 252.11 0 252.11-2.25 251.41-2.25Q250.58-1.03 249.42-0.37 248.26 0.29 246.23 0.29ZM247.13-2.37L247.13-2.37Q250.82-2.37 252.11-4.59L252.11-4.59 252.11-19.19Q250.84-21.41 247.16-21.41L247.16-21.41Q245.45-21.41 244.68-20.86 243.91-20.31 243.89-19.09L243.89-19.09Q243.74-15.43 243.76-11.66 243.79-7.89 243.89-4.69L243.89-4.69Q243.93-3.49 244.68-2.93 245.42-2.37 247.13-2.37ZM263.59-31.69L263.59 0 260.41 0 260.41-31.69 263.59-31.69ZM275.94 0.29L275.94 0.29Q271.96 0.29 270.32-1.07 268.69-2.44 268.56-5.62L268.56-5.62Q268.42-7.42 268.37-9.63 268.32-11.84 268.37-14.09 268.42-16.33 268.56-18.16L268.56-18.16Q268.69-21.34 270.33-22.71 271.98-24.07 275.94-24.07L275.94-24.07Q279.94-24.07 281.54-22.71 283.14-21.34 283.26-18.16L283.26-18.16Q283.41-16.36 283.46-14.15 283.5-11.94 283.46-9.7 283.41-7.47 283.26-5.62L283.26-5.62Q283.14-2.47 281.54-1.09 279.94 0.29 275.94 0.29ZM275.94-2.44L275.94-2.44Q278.18-2.44 279.13-2.99 280.09-3.54 280.16-4.81L280.16-4.81Q280.4-8.62 280.4-11.89 280.4-15.16 280.16-18.97L280.16-18.97Q280.09-20.26 279.16-20.8 278.23-21.34 275.94-21.34L275.94-21.34Q273.64-21.34 272.7-20.8 271.76-20.26 271.69-18.97L271.69-18.97Q271.47-15.16 271.46-11.88 271.44-8.59 271.69-4.81L271.69-4.81Q271.74-3.54 272.73-2.99 273.71-2.44 275.94-2.44ZM290.9-19.19L290.9 0 287.75 0 287.75-23.75 290.9-23.75 290.9-21.53 291.58-21.53Q292.22-22.75 293.27-23.41 294.32-24.07 295.88-24.07L295.88-24.07Q298.22-24.07 299.36-22.84 300.49-21.61 300.49-18.58L300.49-18.58Q300.49-17.92 300.45-17.02 300.4-16.11 300.3-15.41L300.3-15.41 297.27-15.41Q297.32-15.65 297.33-16.26 297.35-16.87 297.36-17.48 297.37-18.09 297.37-18.31L297.37-18.31Q297.37-20.12 296.76-20.76 296.15-21.41 294.81-21.41L294.81-21.41Q291.95-21.41 290.9-19.19L290.9-19.19ZM309.48 0.29L309.48 0.29Q306.72 0.29 305.37-0.93 304.03-2.15 303.96-4.96L303.96-4.96Q303.86-6.96 303.82-9.35 303.79-11.74 303.82-14.21 303.86-16.67 303.96-18.82L303.96-18.82Q304.03-21.66 305.41-22.86 306.79-24.07 309.53-24.07L309.53-24.07Q311.55-24.07 312.71-23.45 313.87-22.83 314.73-21.53L314.73-21.53 315.36-21.53 315.36-31.69 318.49-31.69 318.49 0 315.36 0 315.36-2.25 314.65-2.25Q313.82-1.03 312.66-0.37 311.5 0.29 309.48 0.29ZM310.38-2.37L310.38-2.37Q314.07-2.37 315.36-4.59L315.36-4.59 315.36-19.19Q314.09-21.41 310.4-21.41L310.4-21.41Q308.7-21.41 307.93-20.86 307.16-20.31 307.13-19.09L307.13-19.09Q306.99-15.43 307.01-11.66 307.04-7.89 307.13-4.69L307.13-4.69Q307.18-3.49 307.93-2.93 308.67-2.37 310.38-2.37ZM329.62 0.29L329.62 0.29Q325.68 0.29 324.16-0.98 322.63-2.25 322.51-5.13L322.51-5.13Q322.46-5.88 322.45-6.82 322.44-7.76 322.54-8.47L322.54-8.47 325.39-8.47Q325.34-7.35 325.36-6.41 325.37-5.47 325.39-4.81L325.39-4.81Q325.42-3.47 326.33-2.95 327.25-2.44 329.62-2.44L329.62-2.44Q332.03-2.44 333.02-2.95 334.01-3.47 334.08-4.81L334.08-4.81Q334.16-5.64 334.18-6.04 334.21-6.45 334.18-7.2L334.18-7.2Q334.11-8.45 333.52-9.13 332.94-9.81 330.98-10.11L330.98-10.11 328.13-10.77Q325.93-11.23 324.73-11.94 323.54-12.65 323.05-13.78 322.56-14.92 322.46-16.65L322.46-16.65Q322.39-17.53 322.58-18.58L322.58-18.58Q322.63-21.53 324.18-22.8 325.73-24.07 329.84-24.07L329.84-24.07Q333.77-24.07 335.29-22.83 336.82-21.58 336.96-18.73L336.96-18.73Q336.96-17.99 336.95-17.05 336.94-16.11 336.87-15.41L336.87-15.41 333.91-15.41Q334.03-16.26 334.02-17.36 334.01-18.46 333.96-19.07L333.96-19.07Q333.94-20.36 333.07-20.85 332.2-21.34 329.84-21.34L329.84-21.34Q327.44-21.34 326.58-20.85 325.71-20.36 325.61-19.07L325.61-19.07Q325.59-18.46 325.54-18.05 325.49-17.65 325.51-16.94L325.51-16.94Q325.59-16.09 325.77-15.43 325.95-14.77 326.6-14.34 327.25-13.92 328.71-13.7L328.71-13.7 331.45-13.13Q334.43-12.52 335.79-11.24 337.16-9.96 337.16-7.37L337.16-7.37Q337.16-6.84 337.15-6.23 337.14-5.62 337.09-5.05L337.09-5.05Q336.92-2.2 335.29-0.95 333.67 0.29 329.62 0.29ZM356.32 0.27L356.32 0.27Q353.34 0.27 351.91-0.9 350.48-2.08 350.24-4.57L350.24-4.57Q350.22-5.05 350.18-5.54 350.14-6.03 350.19-6.49L350.19-6.49Q350.36-8.67 351.56-10.14 352.76-11.62 356.1-12.84L356.1-12.84Q357.47-13.33 358.98-13.72 360.49-14.11 361.98-14.48L361.98-14.48 361.98-18.99Q361.98-20.19 361.08-20.76 360.18-21.34 357.93-21.34L357.93-21.34Q355.98-21.34 354.96-20.85 353.95-20.36 353.85-19.07L353.85-19.07Q353.8-18.46 353.8-17.32 353.8-16.19 353.85-15.41L353.85-15.41 350.8-15.41Q350.75-16.02 350.7-16.99 350.66-17.97 350.73-18.73L350.73-18.73Q350.85-21.56 352.57-22.81 354.29-24.07 358.05-24.07L358.05-24.07Q361.98-24.07 363.51-22.71 365.04-21.34 365.06-18.21L365.06-18.21 365.06 0 361.98 0 361.98-2.25 361.3-2.25Q360.69-1.03 359.55-0.38 358.42 0.27 356.32 0.27ZM357.1-2.37L357.1-2.37Q360.62-2.37 361.96-4.47L361.96-4.47 361.96-11.87Q360.79-11.62 359.55-11.29 358.32-10.96 356.66-10.4L356.66-10.4Q354.68-9.67 354.02-8.72 353.37-7.76 353.27-6.49L353.27-6.49Q353.29-6.13 353.3-5.7 353.32-5.27 353.37-4.81L353.37-4.81Q353.54-3.64 354.54-3 355.54-2.37 357.1-2.37ZM372.7-19.19L372.7 0 369.55 0 369.55-23.75 372.7-23.75 372.7-21.53 373.46-21.53Q374.21-22.75 375.45-23.41 376.68-24.07 378.56-24.07L378.56-24.07Q381.32-24.07 382.66-22.86 384-21.66 384-18.82L384-18.82 384 0 380.88 0 380.88-19.09Q380.88-20.31 380.11-20.86 379.34-21.41 377.63-21.41L377.63-21.41Q375.92-21.41 374.63-20.83 373.33-20.24 372.7-19.19L372.7-19.19ZM393.69 0.29L393.69 0.29Q390.93 0.29 389.59-0.93 388.25-2.15 388.17-4.96L388.17-4.96Q388.08-6.96 388.04-9.35 388-11.74 388.04-14.21 388.08-16.67 388.17-18.82L388.17-18.82Q388.25-21.66 389.63-22.86 391.01-24.07 393.74-24.07L393.74-24.07Q395.77-24.07 396.93-23.45 398.09-22.83 398.94-21.53L398.94-21.53 399.58-21.53 399.58-31.69 402.7-31.69 402.7 0 399.58 0 399.58-2.25 398.87-2.25Q398.04-1.03 396.88-0.37 395.72 0.29 393.69 0.29ZM394.6-2.37L394.6-2.37Q398.28-2.37 399.58-4.59L399.58-4.59 399.58-19.19Q398.31-21.41 394.62-21.41L394.62-21.41Q392.91-21.41 392.14-20.86 391.37-20.31 391.35-19.09L391.35-19.09Q391.2-15.43 391.23-11.66 391.25-7.89 391.35-4.69L391.35-4.69Q391.4-3.49 392.14-2.93 392.89-2.37 394.6-2.37ZM425.04-31.74L425.04 0 421.64 0 421.64-31.74 414.98-31.74 414.98-34.86 431.72-34.86 431.72-31.74 425.04-31.74ZM441.56 0.29L441.56 0.29Q437.53 0.29 435.81-0.98 434.09-2.25 433.97-5.13L433.97-5.13Q433.87-6.93 433.83-9.38 433.8-11.82 433.83-14.28 433.87-16.75 433.97-18.58L433.97-18.58Q434.09-21.53 435.86-22.8 437.63-24.07 441.56-24.07L441.56-24.07Q445.27-24.07 446.93-22.83 448.59-21.58 448.76-18.73L448.76-18.73Q448.81-17.87 448.86-15.75 448.91-13.62 448.71-11.23L448.71-11.23 437.02-11.23Q437.02-9.69 437.04-8.11 437.07-6.52 437.14-4.81L437.14-4.81Q437.17-3.47 438.17-2.95 439.17-2.44 441.46-2.44L441.46-2.44Q443.73-2.44 444.66-2.95 445.59-3.47 445.69-4.81L445.69-4.81Q445.76-6.15 445.69-8.47L445.69-8.47 448.71-8.47Q448.84-7.76 448.82-6.82 448.81-5.88 448.76-5.13L448.76-5.13Q448.59-2.25 447.02-0.98 445.44 0.29 441.56 0.29ZM437.02-13.82L437.02-13.82 445.74-13.82Q445.78-15.48 445.78-16.99 445.78-18.51 445.69-19.07L445.69-19.07Q445.59-20.29 444.64-20.81 443.69-21.34 441.56-21.34L441.56-21.34Q439.19-21.34 438.18-20.81 437.17-20.29 437.14-19.07L437.14-19.07Q437.07-17.65 437.03-16.36 437-15.06 437.02-13.82ZM456.01-19.19L456.01 0 452.86 0 452.86-23.75 456.01-23.75 456.01-21.53 456.77-21.53Q457.53-22.75 458.76-23.41 459.99-24.07 461.87-24.07L461.87-24.07Q464.63-24.07 465.97-22.86 467.32-21.66 467.32-18.82L467.32-18.82 467.32 0 464.19 0 464.19-19.09Q464.19-20.31 463.42-20.86 462.65-21.41 460.94-21.41L460.94-21.41Q459.23-21.41 457.94-20.83 456.65-20.24 456.01-19.19L456.01-19.19ZM477.27 0.27L477.27 0.27Q474.3 0.27 472.87-0.9 471.44-2.08 471.19-4.57L471.19-4.57Q471.17-5.05 471.13-5.54 471.1-6.03 471.15-6.49L471.15-6.49Q471.32-8.67 472.51-10.14 473.71-11.62 477.05-12.84L477.05-12.84Q478.42-13.33 479.93-13.72 481.45-14.11 482.94-14.48L482.94-14.48 482.94-18.99Q482.94-20.19 482.03-20.76 481.13-21.34 478.89-21.34L478.89-21.34Q476.93-21.34 475.92-20.85 474.91-20.36 474.81-19.07L474.81-19.07Q474.76-18.46 474.76-17.32 474.76-16.19 474.81-15.41L474.81-15.41 471.76-15.41Q471.71-16.02 471.66-16.99 471.61-17.97 471.68-18.73L471.68-18.73Q471.81-21.56 473.53-22.81 475.25-24.07 479.01-24.07L479.01-24.07Q482.94-24.07 484.46-22.71 485.99-21.34 486.01-18.21L486.01-18.21 486.01 0 482.94 0 482.94-2.25 482.25-2.25Q481.64-1.03 480.51-0.38 479.37 0.27 477.27 0.27ZM478.06-2.37L478.06-2.37Q481.57-2.37 482.91-4.47L482.91-4.47 482.91-11.87Q481.74-11.62 480.51-11.29 479.28-10.96 477.62-10.4L477.62-10.4Q475.64-9.67 474.98-8.72 474.32-7.76 474.22-6.49L474.22-6.49Q474.25-6.13 474.26-5.7 474.27-5.27 474.32-4.81L474.32-4.81Q474.49-3.64 475.49-3 476.49-2.37 478.06-2.37ZM493.65-19.19L493.65 0 490.5 0 490.5-23.75 493.65-23.75 493.65-21.53 494.41-21.53Q495.17-22.75 496.4-23.41 497.63-24.07 499.51-24.07L499.51-24.07Q502.27-24.07 503.61-22.86 504.96-21.66 504.96-18.82L504.96-18.82 504.96 0 501.83 0 501.83-19.09Q501.83-20.31 501.06-20.86 500.29-21.41 498.58-21.41L498.58-21.41Q496.88-21.41 495.58-20.83 494.29-20.24 493.65-19.19L493.65-19.19ZM516.89 0.29L516.89 0.29Q513.08 0.29 511.75-0.98 510.42-2.25 510.42-5.13L510.42-5.13 510.42-21.02 508.08-21.02 508.08-23.75 510.5-23.75 510.5-30.49 513.6-30.49 513.6-23.75 518.97-23.75 518.97-21.02 513.57-21.02 513.57-4.79Q513.57-3.44 514.13-2.93 514.7-2.42 516.97-2.42L516.97-2.42Q517.89-2.42 518.39-2.45 518.89-2.49 519.55-2.51L519.55-2.51 519.55 0.1Q518.97 0.2 518.28 0.24 517.6 0.29 516.89 0.29ZM528.63 0.29L528.63 0.29Q524.7 0.29 523.18-0.98 521.65-2.25 521.53-5.13L521.53-5.13Q521.48-5.88 521.47-6.82 521.46-7.76 521.55-8.47L521.55-8.47 524.41-8.47Q524.36-7.35 524.37-6.41 524.39-5.47 524.41-4.81L524.41-4.81Q524.43-3.47 525.35-2.95 526.27-2.44 528.63-2.44L528.63-2.44Q531.05-2.44 532.04-2.95 533.03-3.47 533.1-4.81L533.1-4.81Q533.17-5.64 533.2-6.04 533.22-6.45 533.2-7.2L533.2-7.2Q533.13-8.45 532.54-9.13 531.95-9.81 530-10.11L530-10.11 527.14-10.77Q524.95-11.23 523.75-11.94 522.55-12.65 522.07-13.78 521.58-14.92 521.48-16.65L521.48-16.65Q521.41-17.53 521.6-18.58L521.6-18.58Q521.65-21.53 523.2-22.8 524.75-24.07 528.85-24.07L528.85-24.07Q532.78-24.07 534.31-22.83 535.84-21.58 535.98-18.73L535.98-18.73Q535.98-17.99 535.97-17.05 535.96-16.11 535.88-15.41L535.88-15.41 532.93-15.41Q533.05-16.26 533.04-17.36 533.03-18.46 532.98-19.07L532.98-19.07Q532.95-20.36 532.09-20.85 531.22-21.34 528.85-21.34L528.85-21.34Q526.46-21.34 525.59-20.85 524.73-20.36 524.63-19.07L524.63-19.07Q524.61-18.46 524.56-18.05 524.51-17.65 524.53-16.94L524.53-16.94Q524.61-16.09 524.79-15.43 524.97-14.77 525.62-14.34 526.27-13.92 527.73-13.7L527.73-13.7 530.46-13.13Q533.44-12.52 534.81-11.24 536.18-9.96 536.18-7.37L536.18-7.37Q536.18-6.84 536.17-6.23 536.15-5.62 536.1-5.05L536.1-5.05Q535.93-2.2 534.31-0.95 532.69 0.29 528.63 0.29ZM544.06-0.44L542.06 4.81 540.23 4.81 541.77 0 539.74 0 539.74-4.44 544.06-4.44 544.06-0.44ZM566.61 0L566.61 0 558.07 0 558.07-34.86 566.74-34.86Q571.28-34.86 573.32-33.4 575.35-31.93 575.43-28.54L575.43-28.54Q575.55-24.58 575.59-21.02 575.62-17.46 575.59-13.89 575.55-10.33 575.43-6.35L575.43-6.35Q575.35-2.95 573.3-1.48 571.25 0 566.61 0ZM566.74-31.74L561.46-31.74 561.46-3.13 566.61-3.13Q569.47-3.13 570.74-3.83 572.01-4.54 572.03-5.98L572.03-5.98Q572.4-17.43 572.03-28.93L572.03-28.93Q572.01-30.37 570.75-31.05 569.5-31.74 566.74-31.74L566.74-31.74ZM583.58-31.69L583.58-28.17 580.43-28.17 580.43-31.69 583.58-31.69ZM583.58-23.75L583.58 0 580.41 0 580.41-23.75 583.58-23.75ZM591.95-19.19L591.95 0 588.8 0 588.8-23.75 591.95-23.75 591.95-21.53 592.63-21.53Q593.27-22.75 594.32-23.41 595.37-24.07 596.93-24.07L596.93-24.07Q599.28-24.07 600.41-22.84 601.55-21.61 601.55-18.58L601.55-18.58Q601.55-17.92 601.5-17.02 601.45-16.11 601.35-15.41L601.35-15.41 598.32-15.41Q598.37-15.65 598.38-16.26 598.4-16.87 598.41-17.48 598.42-18.09 598.42-18.31L598.42-18.31Q598.42-20.12 597.81-20.76 597.2-21.41 595.86-21.41L595.86-21.41Q593-21.41 591.95-19.19L591.95-19.19ZM612.63 0.29L612.63 0.29Q608.6 0.29 606.88-0.98 605.16-2.25 605.03-5.13L605.03-5.13Q604.94-6.93 604.9-9.38 604.86-11.82 604.9-14.28 604.94-16.75 605.03-18.58L605.03-18.58Q605.16-21.53 606.93-22.8 608.7-24.07 612.63-24.07L612.63-24.07Q616.34-24.07 618-22.83 619.66-21.58 619.83-18.73L619.83-18.73Q619.88-17.87 619.93-15.75 619.98-13.62 619.78-11.23L619.78-11.23 608.09-11.23Q608.09-9.69 608.11-8.11 608.14-6.52 608.21-4.81L608.21-4.81Q608.23-3.47 609.23-2.95 610.23-2.44 612.53-2.44L612.53-2.44Q614.8-2.44 615.73-2.95 616.66-3.47 616.75-4.81L616.75-4.81Q616.83-6.15 616.75-8.47L616.75-8.47 619.78-8.47Q619.9-7.76 619.89-6.82 619.88-5.88 619.83-5.13L619.83-5.13Q619.66-2.25 618.08-0.98 616.51 0.29 612.63 0.29ZM608.09-13.82L608.09-13.82 616.8-13.82Q616.85-15.48 616.85-16.99 616.85-18.51 616.75-19.07L616.75-19.07Q616.66-20.29 615.7-20.81 614.75-21.34 612.63-21.34L612.63-21.34Q610.26-21.34 609.25-20.81 608.23-20.29 608.21-19.07L608.21-19.07Q608.14-17.65 608.1-16.36 608.06-15.06 608.09-13.82ZM638.38-15.41L638.38-15.41 635.31-15.41Q635.4-16.26 635.39-17.36 635.38-18.46 635.38-19.07L635.38-19.07Q635.35-20.36 634.37-20.85 633.38-21.34 631.13-21.34L631.13-21.34Q628.84-21.34 627.86-20.85 626.88-20.36 626.86-19.07L626.86-19.07Q626.69-15.23 626.69-11.93 626.69-8.62 626.86-4.81L626.86-4.81Q626.88-3.47 627.86-2.95 628.84-2.44 631.11-2.44L631.11-2.44Q633.35-2.44 634.35-2.95 635.35-3.47 635.38-4.81L635.38-4.81Q635.38-5.47 635.39-6.41 635.4-7.35 635.31-8.47L635.31-8.47 638.38-8.47Q638.5-7.76 638.49-6.82 638.48-5.88 638.43-5.13L638.43-5.13Q638.28-2.25 636.64-0.98 634.99 0.29 631.11 0.29L631.11 0.29Q627.2 0.29 625.5-0.98 623.81-2.25 623.68-5.13L623.68-5.13Q623.59-6.93 623.55-9.38 623.51-11.82 623.55-14.28 623.59-16.75 623.68-18.58L623.68-18.58Q623.81-21.53 625.53-22.8 627.25-24.07 631.13-24.07L631.13-24.07Q634.99-24.07 636.68-22.83 638.38-21.58 638.43-18.73L638.43-18.73Q638.48-17.99 638.49-17.05 638.5-16.11 638.38-15.41ZM649.88 0.29L649.88 0.29Q646.07 0.29 644.74-0.98 643.41-2.25 643.41-5.13L643.41-5.13 643.41-21.02 641.06-21.02 641.06-23.75 643.48-23.75 643.48-30.49 646.58-30.49 646.58-23.75 651.95-23.75 651.95-21.02 646.56-21.02 646.56-4.79Q646.56-3.44 647.12-2.93 647.68-2.42 649.95-2.42L649.95-2.42Q650.88-2.42 651.38-2.45 651.88-2.49 652.54-2.51L652.54-2.51 652.54 0.1Q651.95 0.2 651.27 0.24 650.59 0.29 649.88 0.29ZM658.84-31.69L658.84 0 655.66 0 655.66-31.69 658.84-31.69ZM666.18 8.13L666.18 8.13Q665.4 8.13 664.31 8.06 663.23 7.98 662.52 7.91L662.52 7.91 662.52 5.2Q664.03 5.32 666.08 5.32L666.08 5.32Q668.26 5.32 669.03 4.8 669.79 4.27 670.06 2.95L670.06 2.95 670.77 0 667.48 0 663.08-23.75 666.3-23.75 667.94-12.43 669.82-2.71 671.31-2.71 673.31-12.43 675.04-23.75 678.29-23.75 673.16 2.71Q672.7 5.59 671.21 6.86 669.72 8.13 666.18 8.13Z" opacity="1" transform="matrix(1,0,0,1,0,0)" fill="#ffffff" class="slogan-text-1" data-fill-palette-color="secondary" id="text-1"></path></svg></g></svg></g></svg></g></svg></g><g></g></svg></g><defs></defs></svg><rect width="309.32441073336184" height="103.21788115264644" fill="none" stroke="none" visibility="hidden"></rect></g></svg></g></svg>