<svg xmlns="http://www.w3.org/2000/svg" version="1.1" xmlns:xlink="http://www.w3.org/1999/xlink" xmlns:svgjs="http://svgjs.dev/svgjs" width="128" height="128" viewBox="0 0 128 128"><g transform="matrix(0.64375,0,0,0.64375,22.785465533764672,11.647896449999983)"><svg viewBox="0 0 48 60" data-background-color="#000000" preserveAspectRatio="xMidYMid meet" height="160" width="128" xmlns="http://www.w3.org/2000/svg" xmlns:xlink="http://www.w3.org/1999/xlink"><g id="tight-bounds" transform="matrix(1,0,0,1,0.00846667936038159,0.49637100000001055)"><svg viewBox="0 0 47.983066641279216 59.00725799999999" height="59.00725799999999" width="47.983066641279216"><g><svg viewBox="0 0 47.983066641279216 59.00725799999999" height="59.00725799999999" width="47.983066641279216"><g><svg viewBox="0 0 47.983066641279216 59.00725799999999" height="59.00725799999999" width="47.983066641279216"><g><svg viewBox="0 0 47.983066641279216 59.00725799999999" height="59.00725799999999" width="47.983066641279216"><g id="textblocktransform"><svg viewBox="0 0 47.983066641279216 59.00725799999999" height="59.00725799999999" width="47.983066641279216" id="textblock"><g><svg viewBox="0 0 47.983066641279216 59.00725799999999" height="59.00725799999999" width="47.983066641279216"><g><svg viewBox="0 0 47.983066641279216 59.00725799999999" height="59.00725799999999" width="47.983066641279216"><g><svg xmlns="http://www.w3.org/2000/svg" xmlns:xlink="http://www.w3.org/1999/xlink" version="1.1" x="0" y="0" viewBox="13.412 5.004 73.17899999999999 89.99199999999999" enable-background="new 0 0 100 100" xml:space="preserve" height="59.00725799999999" width="47.983066641279216" class="icon-icon-0" data-fill-palette-color="accent" id="icon-0"><g fill="#3541e4" data-fill-palette-color="accent"><path d="M80.612 8.182H57.369C54.216 6.211 49.629 5.004 43.597 5.004 38.607 5.004 33.953 5.923 30.143 7.435H18.933C15.884 7.435 13.412 11.525 13.412 16.572V23.854C13.412 28.903 15.884 32.993 18.933 32.993H30.733C30.837 32.993 30.938 32.976 31.04 32.968L44.902 49.772A5.98 5.98 0 0 0 52.88 50.459V55.229C48.059 55.559 44.247 59.569 44.247 64.477A9.275 9.275 0 0 0 49.963 73.04V72.784A3.563 3.563 0 0 1 53.52 69.227 3.56 3.56 0 0 1 57.077 72.784V73.04A9.27 9.27 0 0 0 62.792 64.477C62.792 59.569 58.983 55.559 54.16 55.229V50.33C55.046 51.162 56.166 51.668 57.395 51.668 60.241 51.668 62.552 48.992 62.552 45.692V26.887L70.07 32.681C72.743 34.617 76.347 34.203 78.12 31.754 79.894 29.308 79.167 25.753 76.494 23.816L69.212 18.207H80.614C83.914 18.207 86.591 15.962 86.591 13.194 86.589 10.425 83.912 8.182 80.612 8.182M52.235 39.914L43.072 28.805C43.041 28.506 43.013 28.139 42.956 27.663 42.672 25.232 44.948 23.225 47.394 23.225 49.843 23.225 52.234 25.568 52.234 28.016zM55.721 61.229C55.721 62.442 54.734 63.43 53.519 63.43S51.317 62.442 51.317 61.229A2.2 2.2 0 0 1 52.88 59.131V60.026A0.64 0.64 0 0 0 54.16 60.026V59.131A2.2 2.2 0 0 1 55.721 61.229" fill="#3541e4" data-fill-palette-color="accent"></path><path d="M53.519 70.078A2.706 2.706 0 0 0 50.815 72.781V92.287C50.815 93.781 52.028 94.996 53.519 94.996S56.224 93.781 56.224 92.287V72.781A2.706 2.706 0 0 0 53.519 70.078" fill="#3541e4" data-fill-palette-color="accent"></path></g></svg></g></svg></g></svg></g></svg></g></svg></g></svg></g></svg></g><defs></defs></svg><rect width="47.983066641279216" height="59.00725799999999" fill="none" stroke="none" visibility="hidden"></rect></g></svg></g></svg>